<?xml version="1.0" encoding="UTF-8" standalone="no"?>
<!-- Created with Inkscape (http://www.inkscape.org/) -->

<svg
   xmlns:dc="http://purl.org/dc/elements/1.1/"
   xmlns:cc="http://creativecommons.org/ns#"
   xmlns:rdf="http://www.w3.org/1999/02/22-rdf-syntax-ns#"
   xmlns:svg="http://www.w3.org/2000/svg"
   xmlns="http://www.w3.org/2000/svg"
   version="1.1"
   width="2208"
   height="2208"
   id="svg2">
  <defs
     id="defs4">
    <clipPath
       id="clipPath5470">
      <path
         d="m 204.76134,602.37138 2.34725,3.44746 -3.05722,2.11328 2.77503,0.93875 -1.17707,2.12713 2.29756,2.29609 -4.25596,2.95211 3.95906,4.63319 -22.62431,-4.03303 0.44844,-15.40172 z"
         id="path5472"
         style="fill:none;stroke:#0000ff;stroke-width:0.25;stroke-linecap:butt;stroke-linejoin:miter;stroke-miterlimit:4;stroke-opacity:1;stroke-dasharray:none" />
    </clipPath>
    <clipPath
       id="clipPath5466">
      <path
         d="m 204.76134,602.37138 2.34725,3.44746 -3.05722,2.11328 2.77503,0.93875 -1.17707,2.12713 2.29756,2.29609 -4.25596,2.95211 3.95906,4.63319 15.70004,-3.41275 0.44844,-15.40172 z"
         id="path5468"
         style="fill:none;stroke:#0000ff;stroke-width:0.25;stroke-linecap:butt;stroke-linejoin:miter;stroke-miterlimit:4;stroke-opacity:1;stroke-dasharray:none" />
    </clipPath>
    <clipPath
       id="clipPath3847">
      <path
         d="m 201.98237,602.57205 2.47839,4.41987 -3.54505,2.98346 3.35775,3.90694 -3.49097,4.91012 21.70613,0.2846 0.75009,-17.2091 z"
         id="path3849"
         style="fill:none;stroke:#ff0000;stroke-width:1px;stroke-linecap:butt;stroke-linejoin:miter;stroke-opacity:1" />
    </clipPath>
    <clipPath
       id="clipPath5470-3">
      <path
         d="m 204.76134,602.37138 2.34725,3.44746 -3.05722,2.11328 2.77503,0.93875 -1.17707,2.12713 2.29756,2.29609 -4.25596,2.95211 3.95906,4.63319 -22.62431,-4.03303 0.44844,-15.40172 z"
         id="path5472-2"
         style="fill:none;stroke:#0000ff;stroke-width:0.25;stroke-linecap:butt;stroke-linejoin:miter;stroke-miterlimit:4;stroke-opacity:1;stroke-dasharray:none" />
    </clipPath>
    <clipPath
       id="clipPath5466-7">
      <path
         d="m 204.76134,602.37138 2.34725,3.44746 -3.05722,2.11328 2.77503,0.93875 -1.17707,2.12713 2.29756,2.29609 -4.25596,2.95211 3.95906,4.63319 15.70004,-3.41275 0.44844,-15.40172 z"
         id="path5468-3"
         style="fill:none;stroke:#0000ff;stroke-width:0.25;stroke-linecap:butt;stroke-linejoin:miter;stroke-miterlimit:4;stroke-opacity:1;stroke-dasharray:none" />
    </clipPath>
    <clipPath
       id="clipPath3847-7">
      <path
         d="m 201.98237,602.57205 2.47839,4.41987 -3.54505,2.98346 3.35775,3.90694 -3.49097,4.91012 21.70613,0.2846 0.75009,-17.2091 z"
         id="path3849-0"
         style="fill:none;stroke:#ff0000;stroke-width:1px;stroke-linecap:butt;stroke-linejoin:miter;stroke-opacity:1" />
    </clipPath>
  </defs>
  <metadata
     id="metadata7">
    <rdf:RDF>
      <cc:Work
         rdf:about="">
        <dc:format>image/svg+xml</dc:format>
        <dc:type
           rdf:resource="http://purl.org/dc/dcmitype/StillImage" />
        <dc:title></dc:title>
      </cc:Work>
    </rdf:RDF>
  </metadata>
  <g
     id="layer2"
     style="display:inline" />
  <g
     transform="translate(0,1155.6378)"
     id="layer1"
     style="display:inline">
    <path
       d="m 1683.9688,867.09375 -41.9063,133.96875 -215.5625,-65.75 -14.9375,-4.53125 5.25,14.6875 58.8125,164.21875 -141.25,23.4375 -5.8125,0.9688 -0.6875,5.875 -22.3125,193.125 -302.0313,-91.5626 -8.31245,-2.5 -1.65625,8.5 -10.6875,54.5 12.8125,16.1563 11.5937,-59.125 302.7188,91.7813 8.9688,2.7187 1.0937,-9.3437 22.7187,-196.5938 144.6563,-24 9.25,-1.5312 -3.1563,-8.8438 -56.6874,-158.375 208.125,63.4688 7.4374,2.2812 2.3438,-7.4375 L 1695.7812,882 1683.9688,867.09375 z"
       transform="translate(0,-1155.6378)"
       id="path3113"
       style="fill:#ffffff;fill-opacity:1;stroke:#ffffff;stroke-width:7.5;stroke-miterlimit:4;stroke-opacity:1;stroke-dasharray:none" />
    <g
       transform="matrix(38.96313,49.181371,-49.181371,38.96313,23372.652,-33935.264)"
       clip-path="url(#clipPath5466-7)"
       id="g5456">
      <path
         d="m 192.25,603.9375 c -1.56234,0 -2.84375,1.28141 -2.84375,2.84375 l 0,7.40625 c 0,1.56234 1.28141,2.8125 2.84375,2.8125 l 22.5625,0 c 1.56234,0 2.8125,-1.25016 2.8125,-2.8125 l 0,-7.40625 c 0,-1.56234 -1.25016,-2.84375 -2.8125,-2.84375 l -22.5625,0 z m -0.15625,5.65625 c 0.49347,0 0.90625,0.38153 0.90625,0.875 0,0.49347 -0.41278,0.90625 -0.90625,0.90625 -0.49347,0 -0.875,-0.41278 -0.875,-0.90625 0,-0.49347 0.38153,-0.875 0.875,-0.875 z"
         id="path5458"
         style="fill:#ffffff;fill-opacity:1;stroke:#ffffff;stroke-width:0.25;stroke-miterlimit:4;stroke-opacity:1;stroke-dasharray:none" />
      <text
         x="194.28571"
         y="615.21936"
         id="text5460"
         xml:space="preserve"
         style="font-size:12px;font-style:normal;font-variant:normal;font-weight:bold;font-stretch:normal;line-height:125%;letter-spacing:0px;word-spacing:0px;fill:#000000;fill-opacity:1;stroke:none;font-family:Impact;-inkscape-font-specification:Impact Bold"><tspan
           x="194.28571"
           y="615.21936"
           id="tspan5462"
           style="letter-spacing:1px;fill:#000000;fill-opacity:1">FAIL</tspan></text>
    </g>
    <path
       d="m 1288.75,539.5 46.2812,132.5 -212.2812,75.8125 -14.6875,5.25 12.9687,8.65625 145.1563,96.75 -99.375,103.0625 -4.0937,4.25 2.9374,5.125 97.2813,168.34375 -297.0625,106.625 -8.15625,2.9062 3.75,7.8438 23.90625,50.125 19.9375,5.3438 -25.96875,-54.4063 297.71875,-106.875 8.8437,-3.1563 -4.6874,-8.125 -99,-171.37495 101.75,-105.53125 6.5312,-6.78125 -7.8125,-5.21875 -139.9375,-93.28125 204.9062,-73.1875 7.3126,-2.625 -2.5626,-7.34375 L 1307.0938,544.40625 1288.75,539.5 z"
       transform="translate(0,-1155.6378)"
       id="path3090"
       style="fill:#ffffff;fill-opacity:1;stroke:#ffffff;stroke-width:7.5;stroke-miterlimit:4;stroke-opacity:1;stroke-dasharray:none" />
    <g
       transform="matrix(60.606998,16.239596,-16.239596,60.606998,-1368.9726,-40559.072)"
       clip-path="url(#clipPath5470-3)"
       id="g3012">
      <path
         d="m 192.25,603.9375 c -1.56234,0 -2.84375,1.28141 -2.84375,2.84375 l 0,7.40625 c 0,1.56234 1.28141,2.8125 2.84375,2.8125 l 22.5625,0 c 1.56234,0 2.8125,-1.25016 2.8125,-2.8125 l 0,-7.40625 c 0,-1.56234 -1.25016,-2.84375 -2.8125,-2.84375 l -22.5625,0 z m -0.15625,5.65625 c 0.49347,0 0.90625,0.38153 0.90625,0.875 0,0.49347 -0.41278,0.90625 -0.90625,0.90625 -0.49347,0 -0.875,-0.41278 -0.875,-0.90625 0,-0.49347 0.38153,-0.875 0.875,-0.875 z"
         id="rect2989"
         style="fill:#ffffff;fill-opacity:1;stroke:#ffffff;stroke-width:0.25;stroke-miterlimit:4;stroke-opacity:1;stroke-dasharray:none" />
      <text
         x="194.28571"
         y="615.21936"
         id="text2985"
         xml:space="preserve"
         style="font-size:12px;font-style:normal;font-variant:normal;font-weight:bold;font-stretch:normal;line-height:125%;letter-spacing:0px;word-spacing:0px;fill:#000000;fill-opacity:1;stroke:none;font-family:Impact;-inkscape-font-specification:Impact Bold"><tspan
           x="194.28571"
           y="615.21936"
           id="tspan2987"
           style="letter-spacing:1px;fill:#000000;fill-opacity:1">FAIL</tspan></text>
    </g>
  </g>
</svg>
