<?xml version="1.0" encoding="UTF-8" standalone="no"?>
<!-- Created with Inkscape (http://www.inkscape.org/) -->

<svg
   xmlns:dc="http://purl.org/dc/elements/1.1/"
   xmlns:cc="http://creativecommons.org/ns#"
   xmlns:rdf="http://www.w3.org/1999/02/22-rdf-syntax-ns#"
   xmlns:svg="http://www.w3.org/2000/svg"
   xmlns="http://www.w3.org/2000/svg"
   xmlns:sodipodi="http://sodipodi.sourceforge.net/DTD/sodipodi-0.dtd"
   xmlns:inkscape="http://www.inkscape.org/namespaces/inkscape"
   width="31.303144"
   height="31.311247"
   id="svg2"
   version="1.1"
   inkscape:version="0.48.2 r9819"
   sodipodi:docname="logo.svg">
  <defs
     id="defs4">
    <clipPath
       clipPathUnits="userSpaceOnUse"
       id="clipPath3847">
      <path
         style="fill:none;stroke:#ff0000;stroke-width:1px;stroke-linecap:butt;stroke-linejoin:miter;stroke-opacity:1"
         d="m 201.98237,602.57205 2.47839,4.41987 -3.54505,2.98346 3.35775,3.90694 -3.49097,4.91012 21.70613,0.2846 0.75009,-17.2091 z"
         id="path3849"
         inkscape:connector-curvature="0" />
    </clipPath>
    <clipPath
       clipPathUnits="userSpaceOnUse"
       id="clipPath5466">
      <path
         inkscape:connector-curvature="0"
         id="path5468"
         d="m 204.76134,602.37138 2.34725,3.44746 -3.05722,2.11328 2.77503,0.93875 -1.17707,2.12713 2.29756,2.29609 -4.25596,2.95211 3.95906,4.63319 15.70004,-3.41275 0.44844,-15.40172 z"
         style="fill:none;stroke:#0000ff;stroke-width:0.25;stroke-linecap:butt;stroke-linejoin:miter;stroke-miterlimit:4;stroke-opacity:1;stroke-dasharray:none"
         sodipodi:nodetypes="ccccccccccc" />
    </clipPath>
    <clipPath
       clipPathUnits="userSpaceOnUse"
       id="clipPath5470">
      <path
         style="fill:none;stroke:#0000ff;stroke-width:0.25;stroke-linecap:butt;stroke-linejoin:miter;stroke-miterlimit:4;stroke-opacity:1;stroke-dasharray:none"
         d="m 204.76134,602.37138 2.34725,3.44746 -3.05722,2.11328 2.77503,0.93875 -1.17707,2.12713 2.29756,2.29609 -4.25596,2.95211 3.95906,4.63319 -22.62431,-4.03303 0.44844,-15.40172 z"
         id="path5472"
         inkscape:connector-curvature="0" />
    </clipPath>
  </defs>
  <sodipodi:namedview
     id="base"
     pagecolor="#d6e9ef"
     bordercolor="#666666"
     borderopacity="1.0"
     inkscape:pageopacity="1"
     inkscape:pageshadow="2"
     inkscape:zoom="5.6568543"
     inkscape:cx="1.0401409"
     inkscape:cy="-4.6470004"
     inkscape:document-units="px"
     inkscape:current-layer="layer1"
     showgrid="false"
     inkscape:snap-bbox="true"
     fit-margin-top="0"
     fit-margin-left="0"
     fit-margin-right="0"
     fit-margin-bottom="0"
     inkscape:window-width="950"
     inkscape:window-height="782"
     inkscape:window-x="2610"
     inkscape:window-y="639"
     inkscape:window-maximized="0" />
  <metadata
     id="metadata7">
    <rdf:RDF>
      <cc:Work
         rdf:about="">
        <dc:format>image/svg+xml</dc:format>
        <dc:type
           rdf:resource="http://purl.org/dc/dcmitype/StillImage" />
        <dc:title />
      </cc:Work>
    </rdf:RDF>
  </metadata>
  <g
     inkscape:label="Layer 1"
     inkscape:groupmode="layer"
     id="layer1"
     transform="translate(-188.07244,-595.12303)">
    <g
       id="g3807"
       transform="matrix(0.96592583,-0.25881905,0.25881905,0.96592583,-144.95382,92.658184)">
      <path
         style="fill:#ffffff;fill-opacity:1;stroke:none;stroke-width:0.25000000000000000;stroke-miterlimit:4;stroke-opacity:1;stroke-dasharray:none"
         d="M 24.59375 0.125 C 24.406446 0.13575421 24.219888 0.16820458 24.03125 0.21875 L 2.25 6.0625 C 0.74089544 6.4668634 -0.18561335 8.0221454 0.21875 9.53125 L 2.15625 16.6875 C 2.5606134 18.196605 4.1158954 19.091863 5.625 18.6875 L 27.40625 12.84375 C 28.915355 12.439387 29.810613 10.915355 29.40625 9.40625 L 27.5 2.25 C 27.146182 0.92953351 25.904876 0.049720541 24.59375 0.125 z M 16.59375 4 L 17.84375 8.6875 L 19.125 13.375 L 18.625 13.5 L 18.15625 13.625 L 16.875 8.9375 L 15.625 4.25 L 16.125 4.125 L 16.59375 4 z M 15.15625 4.375 L 16.40625 9.0625 L 17.65625 13.78125 L 17.53125 13.8125 L 17.4375 13.84375 L 16.15625 9.125 L 14.90625 4.4375 L 15.03125 4.40625 L 15.15625 4.375 z M 14.4375 4.5625 L 15.6875 9.28125 L 16.9375 13.96875 L 16.78125 14 L 16.625 14.03125 L 15.375 9.34375 L 14.09375 4.65625 L 14.28125 4.625 L 14.4375 4.5625 z M 13.875 4.71875 C 13.921075 4.7064043 13.934321 4.7293241 15.1875 9.40625 C 16.440666 14.083128 16.420978 14.08143 16.375 14.09375 C 16.328925 14.106096 16.346929 14.114426 15.09375 9.4375 C 13.840584 4.7606224 13.829022 4.7310698 13.875 4.71875 z M 13.09375 4.9375 L 14.34375 9.625 L 15.59375 14.3125 L 15.34375 14.375 L 15.125 14.4375 L 13.84375 9.75 L 12.59375 5.0625 L 12.84375 5 L 13.09375 4.9375 z M 12.25 5.15625 L 13.5 9.84375 L 14.78125 14.53125 L 14.28125 14.65625 L 13.8125 14.8125 L 12.53125 10.125 L 11.28125 5.40625 L 11.78125 5.28125 L 12.25 5.15625 z M 10.96875 5.5 L 12.25 10.1875 L 13.5 14.875 L 13.375 14.90625 L 13.28125 14.9375 L 12 10.25 L 10.75 5.5625 L 10.875 5.53125 L 10.96875 5.5 z M 10.125 5.71875 L 10.21875 5.71875 L 11.46875 10.40625 L 12.75 15.09375 L 12.65625 15.125 L 12.5625 15.125 L 11.28125 10.4375 L 10.03125 5.75 L 10.125 5.71875 z M 9.84375 5.8125 L 11.09375 10.5 L 12.375 15.1875 L 12.125 15.25 L 11.875 15.3125 L 10.625 10.625 L 9.375 5.9375 L 9.59375 5.875 L 9.84375 5.8125 z M 8.46875 6.1875 L 9.71875 10.875 L 10.96875 15.5625 L 10.8125 15.59375 L 10.65625 15.65625 L 9.40625 10.9375 L 8.15625 6.25 L 8.3125 6.21875 L 8.46875 6.1875 z M 7.78125 6.34375 L 9.0625 11.03125 L 10.3125 15.75 L 9.9375 15.84375 L 9.5625 15.9375 L 8.3125 11.25 L 7.0625 6.5625 L 7.4375 6.4375 L 7.78125 6.34375 z M 6.46875 6.71875 L 7.71875 11.40625 L 8.96875 16.09375 L 8.84375 16.125 L 8.75 16.15625 L 7.46875 11.46875 L 6.21875 6.78125 L 6.34375 6.75 L 6.46875 6.71875 z M 5.75 6.90625 L 7.03125 11.59375 L 8.28125 16.28125 L 7.78125 16.40625 L 7.28125 16.5625 L 6.03125 11.84375 L 4.78125 7.15625 L 5.25 7.03125 L 5.75 6.90625 z M 3.90625 11.53125 C 4.2532371 11.573313 4.5604604 11.830008 4.65625 12.1875 C 4.7839694 12.664155 4.5079054 13.153531 4.03125 13.28125 C 3.5545946 13.408969 3.0652194 13.101655 2.9375 12.625 C 2.8097806 12.148345 3.0858446 11.690219 3.5625 11.5625 C 3.6816639 11.53057 3.7905876 11.517229 3.90625 11.53125 z "
         transform="matrix(0.96592582,0.25881905,-0.25881905,0.96592582,191.63119,571.53731)"
         id="path3019" />
      <text
         xml:space="preserve"
         style="font-size:5.30829525px;font-style:normal;font-variant:normal;font-weight:bold;font-stretch:normal;text-align:end;line-height:100%;letter-spacing:0px;word-spacing:0px;writing-mode:lr-tb;text-anchor:end;fill:#ffc441;fill-opacity:1;stroke:none;font-family:Impact;-inkscape-font-specification:Impact Bold"
         x="215.46002"
         y="583.88843"
         id="text3021"
         sodipodi:linespacing="100%"><tspan
           sodipodi:role="line"
           id="tspan3025"
           x="215.46002"
           y="583.88843">KEY</tspan><tspan
           sodipodi:role="line"
           id="tspan3027"
           x="215.46002"
           y="589.19672">TAG</tspan></text>
      <path
         id="path4253"
         d="m 192.22812,577.97329 c -1.56234,0 -2.84375,1.28141 -2.84375,2.84375 l 0,7.40625 c 0,1.56234 1.28141,2.8125 2.84375,2.8125 l 22.5625,0 c 1.56234,0 2.8125,-1.25016 2.8125,-2.8125 l 0,-7.40625 c 0,-1.56234 -1.25016,-2.84375 -2.8125,-2.84375 l -22.5625,0 z m -0.15625,5.65625 c 0.49347,0 0.90625,0.38153 0.90625,0.875 0,0.49347 -0.41278,0.90625 -0.90625,0.90625 -0.49347,0 -0.875,-0.41278 -0.875,-0.90625 0,-0.49347 0.38153,-0.875 0.875,-0.875 z"
         style="fill:none;fill-opacity:1;stroke:#ffc441;stroke-width:0.25000000000000000;stroke-miterlimit:4;stroke-opacity:1;stroke-dasharray:none"
         inkscape:connector-curvature="0" />
    </g>
    <g
       clip-path="url(#clipPath5466)"
       transform="matrix(0.62097604,0.78382957,-0.78382957,0.62097604,558.63874,73.721169)"
       id="g5456"
       inkscape:transform-center-x="-8.2141417"
       inkscape:transform-center-y="0.48049691">
      <path
         inkscape:connector-curvature="0"
         style="fill:#ffc441;fill-opacity:1;stroke:#ffffff;stroke-width:0.25;stroke-miterlimit:4;stroke-opacity:1;stroke-dasharray:none"
         d="m 192.25,603.9375 c -1.56234,0 -2.84375,1.28141 -2.84375,2.84375 l 0,7.40625 c 0,1.56234 1.28141,2.8125 2.84375,2.8125 l 22.5625,0 c 1.56234,0 2.8125,-1.25016 2.8125,-2.8125 l 0,-7.40625 c 0,-1.56234 -1.25016,-2.84375 -2.8125,-2.84375 l -22.5625,0 z m -0.15625,5.65625 c 0.49347,0 0.90625,0.38153 0.90625,0.875 0,0.49347 -0.41278,0.90625 -0.90625,0.90625 -0.49347,0 -0.875,-0.41278 -0.875,-0.90625 0,-0.49347 0.38153,-0.875 0.875,-0.875 z"
         id="path5458" />
      <text
         xml:space="preserve"
         style="font-size:12px;font-style:normal;font-variant:normal;font-weight:bold;font-stretch:normal;line-height:125%;letter-spacing:0px;word-spacing:0px;fill:#ffffff;fill-opacity:1;stroke:none;font-family:Impact;-inkscape-font-specification:Impact Bold"
         x="194.28571"
         y="615.21936"
         id="text5460"
         sodipodi:linespacing="125%"><tspan
           sodipodi:role="line"
           id="tspan5462"
           x="194.28571"
           y="615.21936"
           style="letter-spacing:1px;fill:#ffffff;fill-opacity:1">FAIL</tspan></text>
    </g>
    <g
       id="g3012"
       transform="matrix(0.96592584,0.25881905,-0.25881905,0.96592584,164.31836,-31.845971)"
       clip-path="url(#clipPath5470)">
      <path
         id="rect2989"
         d="m 192.25,603.9375 c -1.56234,0 -2.84375,1.28141 -2.84375,2.84375 l 0,7.40625 c 0,1.56234 1.28141,2.8125 2.84375,2.8125 l 22.5625,0 c 1.56234,0 2.8125,-1.25016 2.8125,-2.8125 l 0,-7.40625 c 0,-1.56234 -1.25016,-2.84375 -2.8125,-2.84375 l -22.5625,0 z m -0.15625,5.65625 c 0.49347,0 0.90625,0.38153 0.90625,0.875 0,0.49347 -0.41278,0.90625 -0.90625,0.90625 -0.49347,0 -0.875,-0.41278 -0.875,-0.90625 0,-0.49347 0.38153,-0.875 0.875,-0.875 z"
         style="fill:#ffc441;fill-opacity:1;stroke:#ffffff;stroke-width:0.25;stroke-miterlimit:4;stroke-opacity:1;stroke-dasharray:none"
         inkscape:connector-curvature="0" />
      <text
         sodipodi:linespacing="125%"
         id="text2985"
         y="615.21936"
         x="194.28571"
         style="font-size:12px;font-style:normal;font-variant:normal;font-weight:bold;font-stretch:normal;line-height:125%;letter-spacing:0px;word-spacing:0px;fill:#ffffff;fill-opacity:1;stroke:none;font-family:Impact;-inkscape-font-specification:Impact Bold"
         xml:space="preserve"><tspan
           style="letter-spacing:1px;fill:#ffffff;fill-opacity:1"
           y="615.21936"
           x="194.28571"
           id="tspan2987"
           sodipodi:role="line">FAIL</tspan></text>
    </g>
  </g>
</svg>
