<?xml version="1.0" encoding="UTF-8" standalone="no"?>
<!-- Created with Inkscape (http://www.inkscape.org/) -->

<svg
   xmlns:dc="http://purl.org/dc/elements/1.1/"
   xmlns:cc="http://creativecommons.org/ns#"
   xmlns:rdf="http://www.w3.org/1999/02/22-rdf-syntax-ns#"
   xmlns:svg="http://www.w3.org/2000/svg"
   xmlns="http://www.w3.org/2000/svg"
   xmlns:sodipodi="http://sodipodi.sourceforge.net/DTD/sodipodi-0.dtd"
   xmlns:inkscape="http://www.inkscape.org/namespaces/inkscape"
   width="2208"
   height="2208"
   id="svg2"
   version="1.1"
   inkscape:version="0.48.2 r9819"
   sodipodi:docname="splash.svg"
   inkscape:export-filename="/Users/pmn/code/personal/keytag.fail/resources/splash.png"
   inkscape:export-xdpi="90"
   inkscape:export-ydpi="90">
  <defs
     id="defs4">
    <clipPath
       id="clipPath5470"
       clipPathUnits="userSpaceOnUse">
      <path
         inkscape:connector-curvature="0"
         id="path5472"
         d="m 204.76134,602.37138 2.34725,3.44746 -3.05722,2.11328 2.77503,0.93875 -1.17707,2.12713 2.29756,2.29609 -4.25596,2.95211 3.95906,4.63319 -22.62431,-4.03303 0.44844,-15.40172 z"
         style="fill:none;stroke:#0000ff;stroke-width:0.25;stroke-linecap:butt;stroke-linejoin:miter;stroke-miterlimit:4;stroke-opacity:1;stroke-dasharray:none" />
    </clipPath>
    <clipPath
       id="clipPath5466"
       clipPathUnits="userSpaceOnUse">
      <path
         sodipodi:nodetypes="ccccccccccc"
         style="fill:none;stroke:#0000ff;stroke-width:0.25;stroke-linecap:butt;stroke-linejoin:miter;stroke-miterlimit:4;stroke-opacity:1;stroke-dasharray:none"
         d="m 204.76134,602.37138 2.34725,3.44746 -3.05722,2.11328 2.77503,0.93875 -1.17707,2.12713 2.29756,2.29609 -4.25596,2.95211 3.95906,4.63319 15.70004,-3.41275 0.44844,-15.40172 z"
         id="path5468"
         inkscape:connector-curvature="0" />
    </clipPath>
    <clipPath
       id="clipPath3847"
       clipPathUnits="userSpaceOnUse">
      <path
         inkscape:connector-curvature="0"
         id="path3849"
         d="m 201.98237,602.57205 2.47839,4.41987 -3.54505,2.98346 3.35775,3.90694 -3.49097,4.91012 21.70613,0.2846 0.75009,-17.2091 z"
         style="fill:none;stroke:#ff0000;stroke-width:1px;stroke-linecap:butt;stroke-linejoin:miter;stroke-opacity:1" />
    </clipPath>
    <clipPath
       clipPathUnits="userSpaceOnUse"
       id="clipPath4082">
      <path
         style="fill:none;stroke:#000000;stroke-width:1px;stroke-linecap:butt;stroke-linejoin:miter;stroke-opacity:1"
         d="m -685.8344,1901.0016 -650.2253,53.3272 72.9823,-1035.16923 -2161.6075,312.94083 -317.0486,1510.3359 3077.52741,-137.6835 z"
         id="path4084"
         inkscape:connector-curvature="0"
         sodipodi:nodetypes="ccccccc" />
    </clipPath>
  </defs>
  <sodipodi:namedview
     id="base"
     pagecolor="#000000"
     bordercolor="#666666"
     borderopacity="1.0"
     inkscape:pageopacity="1"
     inkscape:pageshadow="2"
     inkscape:zoom="0.25"
     inkscape:cx="1268.4545"
     inkscape:cy="699.10521"
     inkscape:document-units="px"
     inkscape:current-layer="layer1"
     showgrid="false"
     borderlayer="true"
     guidecolor="#ff0000"
     guideopacity="0.49803922"
     guidehicolor="#f8ff00"
     guidehiopacity="0.49803922"
     showguides="true"
     inkscape:window-width="1180"
     inkscape:window-height="784"
     inkscape:window-x="2208"
     inkscape:window-y="518"
     inkscape:window-maximized="0">
    <sodipodi:guide
       position="0,505"
       orientation="0,1"
       id="guide2985" />
    <sodipodi:guide
       position="1703,0"
       orientation="1,0"
       id="guide2987" />
    <sodipodi:guide
       position="-1245.7143,1703"
       orientation="0,1"
       id="guide2989" />
    <sodipodi:guide
       position="505,2208"
       orientation="1,0"
       id="guide2991" />
  </sodipodi:namedview>
  <metadata
     id="metadata7">
    <rdf:RDF>
      <cc:Work
         rdf:about="">
        <dc:format>image/svg+xml</dc:format>
        <dc:type
           rdf:resource="http://purl.org/dc/dcmitype/StillImage" />
        <dc:title></dc:title>
      </cc:Work>
    </rdf:RDF>
  </metadata>
  <g
     inkscape:label="Layer 1"
     inkscape:groupmode="layer"
     id="layer1"
     transform="translate(0,1155.6378)">
    <path
       inkscape:transform-center-y="208.62974"
       inkscape:transform-center-x="142.26255"
       transform="matrix(0.10929365,-0.17264971,0.16999781,0.10761491,515.79123,-526.62303)"
       d="m -976,1896 c 0,393.2267 -548.0035,712 -1224,712 -675.9965,0 -1224,-318.7733 -1224,-712 0,-393.2267 548.0035,-712 1224,-712 675.9965,0 1224,318.7733 1224,712 z"
       sodipodi:ry="712"
       sodipodi:rx="1224"
       sodipodi:cy="1896"
       sodipodi:cx="-2200"
       id="path4078"
       style="fill:none;stroke:#ffffff;stroke-width:123.29836273;stroke-miterlimit:4;stroke-dasharray:none"
       sodipodi:type="arc" />
    <g
       id="g3947"
       transform="translate(-3.8235448,-5.6646156e-5)" />
    <g
       transform="matrix(31.032822,0,0,31.032822,-5218.3002,-19005.869)"
       id="layer1-1"
       inkscape:label="Layer 1">
      <g
         transform="matrix(0.96592583,-0.25881905,0.25881905,0.96592583,-144.95382,92.658184)"
         id="g3807">
        <path
           style="fill:#ffffff;fill-opacity:1;stroke:none"
           d="m -1462.8125,1142.5625 c -7.2252,0.048 -14.5575,1.008 -21.875,2.9687 L -2161,1326.75 c -46.8318,12.5485 -74.9548,61.2307 -62.4062,108.0625 l 59.4687,222 c 12.5485,46.8318 61.012,74.0173 107.8437,61.4687 l 676.3126,-181.2187 c 46.8317,-12.5485 74.2672,-60.0432 61.7187,-106.875 l -59.4687,-222 c -10.5879,-39.5143 -46.2653,-65.8864 -85.2813,-65.625 z m -252.625,120 39,145.5937 39.0313,145.5626 -15.0626,4.0312 -15.0624,4.0312 -39.0313,-145.5624 -39,-145.5938 15.0625,-4.0312 15.0625,-4.0313 z m -45.1875,12.125 39,145.5625 39.0312,145.5625 -3.5937,0.9687 -3.5937,0.9688 -39,-145.5625 -39,-145.5937 3.5624,-0.9688 3.5938,-0.9375 z m -22.2188,5.9375 39,145.5938 39,145.5624 -5.0312,1.3438 -5,1.3438 -39,-145.5626 -39.0312,-145.5937 5.0312,-1.3437 5.0312,-1.3438 z m -16.9687,4.5938 c 1.3341,0.2637 3.7284,9.1516 40.1875,145.2187 38.8893,145.1367 38.9893,145.5864 37.5625,145.9687 -1.4298,0.3832 -1.5478,-0.049 -40.4375,-145.1874 -38.8893,-145.1368 -38.9893,-145.5865 -37.5625,-145.9688 0.089,-0.024 0.1611,-0.049 0.25,-0.031 z m -24.6563,6.5624 39.0313,145.5626 39,145.5937 -7.5313,2 -7.5312,2.0313 -39,-145.5626 -39.0312,-145.5937 7.5312,-2 7.5312,-2.0313 z m -25.8124,6.9063 39,145.5937 39.0312,145.5626 -15.0625,4.0312 -15.0625,4.0625 -39.0312,-145.5937 -39,-145.5626 15.0624,-4.0312 15.0626,-4.0625 z m -39.4376,10.5937 39,145.5626 39,145.5624 -3.5937,0.9688 -3.5625,0.9688 -39,-145.5626 -39.0312,-145.5937 3.5937,-0.9687 3.5937,-0.9376 z m -23.6874,6.3438 39.0312,145.5625 39,145.5625 -2.875,0.7812 -2.875,0.7813 -39,-145.5937 -39,-145.5626 2.875,-0.7812 2.8438,-0.75 z m -11.4688,3.0625 39,145.5625 39.0312,145.5938 -7.5312,2 -7.5312,2.0312 -39.0313,-145.5625 -39,-145.5937 7.5313,-2 7.5312,-2.0313 z m -43.0312,11.5313 39,145.5624 39,145.5938 -5,1.3438 -5.0313,1.3437 -39,-145.5625 -39,-145.5938 5,-1.3437 5.0313,-1.3437 z m -20.8126,5.5624 39.0313,145.5938 39,145.5625 -11.4687,3.0937 -11.5,3.0626 -39,-145.5626 -39,-145.5937 11.4687,-3.0625 11.4687,-3.0938 z m -41.5937,11.1563 39,145.5625 39.0313,145.5938 -3.5938,0.9687 -3.5938,0.9375 -39,-145.5625 -39,-145.5625 3.5626,-0.9688 3.5937,-0.9687 z m -21.5,5.7813 39,145.5624 39,145.5626 -15.4063,4.1562 -15.4374,4.125 -39,-145.5938 -39,-145.5624 15.4062,-4.125 15.4375,-4.125 z m -61.5,143.8437 c 12.4013,-0.2693 23.9058,7.4568 27.25,19.9375 3.9635,14.792 -5.1143,30.474 -19.9063,34.4375 -14.7919,3.9635 -29.5365,-5.333 -33.5,-20.125 -3.9634,-14.792 4.4268,-29.3178 19.2188,-33.2813 2.3112,-0.6192 4.641,-0.9188 6.9375,-0.9687 z"
           transform="matrix(0.03112594,0.00834017,-0.00834017,0.03112594,270.55679,554.70045)"
           id="path3019"
           inkscape:connector-curvature="0" />
        <text
           sodipodi:linespacing="100%"
           id="text3021"
           y="583.88843"
           x="215.46002"
           style="font-size:5.30829525px;font-style:normal;font-variant:normal;font-weight:bold;font-stretch:normal;text-align:end;line-height:100%;letter-spacing:0px;word-spacing:0px;writing-mode:lr-tb;text-anchor:end;fill:#ffc441;fill-opacity:1;stroke:none;font-family:Impact;-inkscape-font-specification:Impact Bold"
           xml:space="preserve"><tspan
             y="583.88843"
             x="215.46002"
             id="tspan3025"
             sodipodi:role="line">KEY</tspan><tspan
             y="589.19672"
             x="215.46002"
             id="tspan3027-5"
             sodipodi:role="line">TAG</tspan></text>
        <path
           inkscape:connector-curvature="0"
           style="fill:none;stroke:#ffc441;stroke-width:0.25;stroke-miterlimit:4;stroke-opacity:1;stroke-dasharray:none"
           d="m 192.22812,577.97329 c -1.56234,0 -2.84375,1.28141 -2.84375,2.84375 l 0,7.40625 c 0,1.56234 1.28141,2.8125 2.84375,2.8125 l 22.5625,0 c 1.56234,0 2.8125,-1.25016 2.8125,-2.8125 l 0,-7.40625 c 0,-1.56234 -1.25016,-2.84375 -2.8125,-2.84375 l -22.5625,0 z m -0.15625,5.65625 c 0.49347,0 0.90625,0.38153 0.90625,0.875 0,0.49347 -0.41278,0.90625 -0.90625,0.90625 -0.49347,0 -0.875,-0.41278 -0.875,-0.90625 0,-0.49347 0.38153,-0.875 0.875,-0.875 z"
           id="path3305" />
      </g>
      <g
         inkscape:transform-center-y="0.48049691"
         inkscape:transform-center-x="-8.2141417"
         id="g5456"
         transform="matrix(0.62097604,0.78382957,-0.78382957,0.62097604,558.63874,73.721169)"
         clip-path="url(#clipPath5466)">
        <path
           id="path5458"
           d="m 192.25,603.9375 c -1.56234,0 -2.84375,1.28141 -2.84375,2.84375 l 0,7.40625 c 0,1.56234 1.28141,2.8125 2.84375,2.8125 l 22.5625,0 c 1.56234,0 2.8125,-1.25016 2.8125,-2.8125 l 0,-7.40625 c 0,-1.56234 -1.25016,-2.84375 -2.8125,-2.84375 l -22.5625,0 z m -0.15625,5.65625 c 0.49347,0 0.90625,0.38153 0.90625,0.875 0,0.49347 -0.41278,0.90625 -0.90625,0.90625 -0.49347,0 -0.875,-0.41278 -0.875,-0.90625 0,-0.49347 0.38153,-0.875 0.875,-0.875 z"
           style="fill:#ffc441;fill-opacity:1;stroke:#ffffff;stroke-width:0.25;stroke-miterlimit:4;stroke-opacity:1;stroke-dasharray:none"
           inkscape:connector-curvature="0" />
        <text
           sodipodi:linespacing="125%"
           id="text5460"
           y="615.21936"
           x="194.28571"
           style="font-size:12px;font-style:normal;font-variant:normal;font-weight:bold;font-stretch:normal;line-height:125%;letter-spacing:0px;word-spacing:0px;fill:#ffffff;fill-opacity:1;stroke:none;font-family:Impact;-inkscape-font-specification:Impact Bold"
           xml:space="preserve"><tspan
             style="letter-spacing:1px;fill:#ffffff;fill-opacity:1"
             y="615.21936"
             x="194.28571"
             id="tspan5462"
             sodipodi:role="line">FAIL</tspan></text>
      </g>
      <g
         clip-path="url(#clipPath5470)"
         transform="matrix(0.96592584,0.25881905,-0.25881905,0.96592584,164.31836,-31.845971)"
         id="g3012">
        <path
           inkscape:connector-curvature="0"
           style="fill:#ffc441;fill-opacity:1;stroke:#ffffff;stroke-width:0.25;stroke-miterlimit:4;stroke-opacity:1;stroke-dasharray:none"
           d="m 192.25,603.9375 c -1.56234,0 -2.84375,1.28141 -2.84375,2.84375 l 0,7.40625 c 0,1.56234 1.28141,2.8125 2.84375,2.8125 l 22.5625,0 c 1.56234,0 2.8125,-1.25016 2.8125,-2.8125 l 0,-7.40625 c 0,-1.56234 -1.25016,-2.84375 -2.8125,-2.84375 l -22.5625,0 z m -0.15625,5.65625 c 0.49347,0 0.90625,0.38153 0.90625,0.875 0,0.49347 -0.41278,0.90625 -0.90625,0.90625 -0.49347,0 -0.875,-0.41278 -0.875,-0.90625 0,-0.49347 0.38153,-0.875 0.875,-0.875 z"
           id="rect2989" />
        <text
           xml:space="preserve"
           style="font-size:12px;font-style:normal;font-variant:normal;font-weight:bold;font-stretch:normal;line-height:125%;letter-spacing:0px;word-spacing:0px;fill:#ffffff;fill-opacity:1;stroke:none;font-family:Impact;-inkscape-font-specification:Impact Bold"
           x="194.28571"
           y="615.21936"
           id="text2985"
           sodipodi:linespacing="125%"><tspan
             sodipodi:role="line"
             id="tspan2987"
             x="194.28571"
             y="615.21936"
             style="letter-spacing:1px;fill:#ffffff;fill-opacity:1">FAIL</tspan></text>
      </g>
    </g>
    <path
       sodipodi:type="arc"
       style="fill:none;stroke:#ffffff;stroke-width:123.29836273;stroke-miterlimit:4;stroke-dasharray:none"
       id="path3308"
       sodipodi:cx="-2200"
       sodipodi:cy="1896"
       sodipodi:rx="1224"
       sodipodi:ry="712"
       d="m -976,1896 c 0,393.2267 -548.0035,712 -1224,712 -675.9965,0 -1224,-318.7733 -1224,-712 0,-393.2267 548.0035,-712 1224,-712 675.9965,0 1224,318.7733 1224,712 z"
       transform="matrix(0.10929365,-0.17264971,0.16999781,0.10761491,515.79123,-526.62303)"
       inkscape:transform-center-x="142.26255"
       inkscape:transform-center-y="208.62974"
       clip-path="url(#clipPath4082)" />
  </g>
</svg>
