<?xml version="1.0" encoding="UTF-8" standalone="no"?>
<!-- Created with Inkscape (http://www.inkscape.org/) -->

<svg
   xmlns:dc="http://purl.org/dc/elements/1.1/"
   xmlns:cc="http://creativecommons.org/ns#"
   xmlns:rdf="http://www.w3.org/1999/02/22-rdf-syntax-ns#"
   xmlns:svg="http://www.w3.org/2000/svg"
   xmlns="http://www.w3.org/2000/svg"
   xmlns:xlink="http://www.w3.org/1999/xlink"
   xmlns:sodipodi="http://sodipodi.sourceforge.net/DTD/sodipodi-0.dtd"
   xmlns:inkscape="http://www.inkscape.org/namespaces/inkscape"
   width="239.16612"
   height="213.67363"
   id="svg4396"
   version="1.1"
   inkscape:version="0.91 r13725"
   sodipodi:docname="bg-pattern-key.svg"
   inkscape:export-filename="/Users/pmn/code/personal/keytag.fail/resources/bg-pattern.png"
   inkscape:export-xdpi="5.3856511"
   inkscape:export-ydpi="5.3856511">
  <defs
     id="defs4398">
    <clipPath
       clipPathUnits="userSpaceOnUse"
       id="clipPath4478">
      <rect
         y="1.0376224e-05"
         x="1.6325265e-06"
         height="285.03912"
         width="318.9595"
         id="rect4480"
         style="opacity:0.50499998;fill:#ff0000;fill-opacity:1;stroke:none;stroke-width:3;stroke-linecap:round;stroke-linejoin:miter;stroke-miterlimit:4;stroke-dasharray:none;stroke-dashoffset:0;stroke-opacity:1" />
    </clipPath>
  </defs>
  <sodipodi:namedview
     id="base"
     pagecolor="#ffffff"
     bordercolor="#666666"
     borderopacity="1.0"
     inkscape:pageopacity="0.0"
     inkscape:pageshadow="2"
     inkscape:zoom="0.70710678"
     inkscape:cx="1655.6137"
     inkscape:cy="1740.9331"
     inkscape:document-units="px"
     inkscape:current-layer="svg4396"
     showgrid="false"
     fit-margin-top="0"
     fit-margin-left="0"
     fit-margin-right="0"
     fit-margin-bottom="0"
     inkscape:snap-bbox="false"
     inkscape:object-paths="true"
     inkscape:snap-smooth-nodes="true"
     inkscape:snap-intersection-paths="true"
     inkscape:object-nodes="true"
     inkscape:window-width="1280"
     inkscape:window-height="751"
     inkscape:window-x="1657"
     inkscape:window-y="279"
     inkscape:window-maximized="0"
     inkscape:bbox-paths="true"
     inkscape:bbox-nodes="true"
     inkscape:snap-center="true"
     inkscape:snap-object-midpoints="true"
     inkscape:snap-nodes="false" />
  <metadata
     id="metadata4401">
    <rdf:RDF>
      <cc:Work
         rdf:about="">
        <dc:format>image/svg+xml</dc:format>
        <dc:type
           rdf:resource="http://purl.org/dc/dcmitype/StillImage" />
        <dc:title></dc:title>
      </cc:Work>
    </rdf:RDF>
  </metadata>
  <g
     inkscape:label="Layer 1"
     inkscape:groupmode="layer"
     id="layer1"
     transform="translate(4047.0457,-3304.0719)">
    <g
       id="g2997"
       clip-path="none"
       transform="matrix(0.26034044,0,0,0.26034044,564.40154,1267.6988)">
      <g
         transform="translate(-7.934903e-6,-1.4696948e-6)"
         inkscape:tile-y0="107.47762"
         inkscape:tile-x0="-75.592303"
         inkscape:tile-h="908.22457"
         inkscape:tile-w="908.22462"
         inkscape:tile-cy="561.5899"
         inkscape:tile-cx="378.52"
         id="g4444"
         style="opacity:1">
        <g
           id="g4435"
           inkscape:transform-center-x="80"
           inkscape:transform-center-y="-131.42857">
          <path
             inkscape:transform-center-y="212.68374"
             inkscape:transform-center-x="-214.22356"
             inkscape:connector-curvature="0"
             id="path4419"
             d="m 399.20965,492.84503 c 11.589,0.0125 13.1012,-1.84883 64.84375,-53.375 55.37083,-55.13929 55.03125,-54.7137 55.03125,-68.4375 0,-14.14 2.07951,-11.6235 -65.03125,-78.8125 -61.05995,-61.13115 -64.14455,-63.89936 -73.53125,-65.8125 -6.396,-1.30361 -13.5684,-0.23303 -20.2812,3 -5.2099,2.50913 -12.4008,9.31736 -54.5938,51.6875 -54.939,55.16972 -53.3577,53.18655 -53.3438,67.28125 0.0149,14.5133 -1.8545,12.25282 65.75,79.71875 67.0729,66.93529 64.3037,64.66735 78.6876,64.71875 0.8802,0.003 1.6961,0.0304 2.4687,0.0312 z m -1.1563,-60.6875 c -1.6368,0.0946 -3.3237,-0.2183 -5.3437,-0.75 -3.9986,-1.05252 -8.2511,-4.96984 -41.125,-37.84375 -32.1441,-32.14413 -36.8019,-37.21216 -37.7813,-40.9375 -2.1194,-8.06106 -0.432,-11.10661 14.3126,-26.09375 7.7536,-7.8812 14.767,-14.15396 17.125,-15.25 10.0928,-4.69117 10.7409,-4.23033 52.1562,37.3125 32.32825,32.42785 36.31778,36.7638 37.375,40.75 2.1414,8.07409 0.60157,10.77345 -15.3438,26.71875 -11.9532,11.95331 -16.4643,15.80985 -21.375,16.09375 z M 497.5534,313.87628 c 2.22193,0.85264 178.57092,-175.22335 181.28125,-181 1.57158,-3.34958 1.89255,-6.43907 1.90625,-19 0.029,-26.57039 0.35528,-26.16784 -34.21875,-37.8125 -26.32363,-8.8659 -32.30822,-10.0293 -37.5625,-7.25 -1.48519,0.7856 -6.59845,5.3981 -11.375,10.25 l -8.6875,8.8125 -0.3125,17.1875 c -0.34946,19.03702 -0.73568,20.24606 -7.8125,25.0625 -3.09485,2.10633 -4.34994,2.25 -19.625,2.25 -15.22516,0 -16.38864,0.15697 -17.375,2 -0.62208,1.16236 -1.0031,8.05526 -0.9375,16.75 0.0613,8.12614 -0.33114,15.875 -0.875,17.25 -0.54385,1.375 -2.4163,3.85 -4.15625,5.5 l -3.1875,3 -17.15625,0.34375 c -10.07042,0.18695 -17.69269,0.75686 -18.4375,1.375 -0.93081,0.77251 -1.28125,5.3832 -1.28125,17.28125 0,15.18457 -0.14489,16.4382 -2.25,19.53125 -4.81669,7.07718 -6.02522,7.43327 -25.0625,7.78125 l -17.1875,0.34375 -11.25,11.15625 c -6.1875,6.14332 -11.25044,11.40353 -11.25,11.6875 0.002,1.2284 43.92657,45 45.15625,45 0.74928,0 39.26602,-37.89345 85.59375,-84.21875 l 84.21875,-84.21875 4.53125,4.4375 c 2.48598,2.43981 4.5,5.11953 4.5,5.96875 0,0.84922 -37.575,39.10872 -83.5,85.03125 -45.925,45.92253 -83.5,83.89119 -83.5,84.34375 0,1.32508 8.05717,10.48267 9.8125,11.15625 z M 635.1784,73.97003 c -8.09088,-2.61849 -14.64538,-4.62356 -17.40625,-5.28125 2.9148,0.65255 9.62984,2.73184 17.40625,5.28125 z m -28.65625,-1.625 c 1.62222,-1.27409 2.95398,-2.18045 3.71875,-2.5 0.40682,-0.16998 0.87516,-0.31992 1.34375,-0.46875 -1.55599,0.62077 -3.19643,1.57881 -5.0625,2.96875 z m 11.0625,-3.6875 c -0.53366,-0.12397 -0.93373,-0.18215 -1.125,-0.1875 0.22694,0.006 0.62931,0.0816 1.125,0.1875 z"
             style="fill:#4a4a4a;fill-opacity:1" />
        </g>
        <use
           x="0"
           y="0"
           xlink:href="#g4435"
           inkscape:transform-center-x="-131.42857"
           inkscape:transform-center-y="-79.999999"
           id="use4438"
           transform="matrix(0,1,-1,0,940.10993,183.06992)"
           width="744.09448"
           height="1052.3622" />
        <use
           x="0"
           y="0"
           xlink:href="#g4435"
           inkscape:transform-center-x="-80"
           inkscape:transform-center-y="131.42852"
           id="use4440"
           transform="matrix(-1,0,0,-1,757.04001,1123.1798)"
           width="744.09448"
           height="1052.3622" />
        <use
           x="0"
           y="0"
           xlink:href="#g4435"
           inkscape:transform-center-x="131.42857"
           inkscape:transform-center-y="80.000001"
           id="use4442"
           transform="matrix(0,-1,1,0,-183.06992,940.10993)"
           width="744.09448"
           height="1052.3622" />
      </g>
      <use
         height="1052.3622"
         width="744.09448"
         id="use4453"
         transform="translate(0,768.22457)"
         xlink:href="#g4444"
         inkscape:tiled-clone-of="#g4444"
         y="0"
         x="0" />
      <use
         height="1052.3622"
         width="744.09448"
         id="use4455"
         transform="translate(0,1536.4491)"
         xlink:href="#g4444"
         inkscape:tiled-clone-of="#g4444"
         y="0"
         x="0" />
      <use
         height="1052.3622"
         width="744.09448"
         id="use4457"
         transform="translate(768.22462,0)"
         xlink:href="#g4444"
         inkscape:tiled-clone-of="#g4444"
         y="0"
         x="0" />
      <use
         height="1052.3622"
         width="744.09448"
         id="use4459"
         transform="translate(768.22462,768.22457)"
         xlink:href="#g4444"
         inkscape:tiled-clone-of="#g4444"
         y="0"
         x="0" />
      <use
         height="1052.3622"
         width="744.09448"
         id="use4461"
         transform="translate(768.22462,1536.4491)"
         xlink:href="#g4444"
         inkscape:tiled-clone-of="#g4444"
         y="0"
         x="0" />
      <use
         height="1052.3622"
         width="744.09448"
         id="use4463"
         transform="translate(1536.4492,0)"
         xlink:href="#g4444"
         inkscape:tiled-clone-of="#g4444"
         y="0"
         x="0" />
      <use
         height="1052.3622"
         width="744.09448"
         id="use4465"
         transform="translate(1536.4492,768.22457)"
         xlink:href="#g4444"
         inkscape:tiled-clone-of="#g4444"
         y="0"
         x="0" />
      <use
         height="1052.3622"
         width="744.09448"
         id="use4467"
         transform="translate(1536.4492,1536.4491)"
         xlink:href="#g4444"
         inkscape:tiled-clone-of="#g4444"
         y="0"
         x="0" />
    </g>
    <rect
       y="1513.9033"
       x="762.94556"
       height="200"
       width="200"
       id="rect3023"
       style="opacity:0.5;fill:#ffc441;fill-opacity:1;stroke:none" />
  </g>
  <g
     id="g4220"
     transform="translate(2793.2384,-1070.4323)">
    <path
       style="fill:#5b5b5b;fill-opacity:1;stroke:#4a4a4a;stroke-width:3;stroke-miterlimit:4;stroke-dasharray:none;stroke-opacity:1"
       d="m -1480.7361,-645.31635 c -3.9064,-0.69813 -7.3169,-2.65567 -9.445,-5.42078 -2.208,-2.8689 -3.1554,-5.32525 -4.4252,-11.47412 -0.3776,-1.82469 -1.1023,-5.30317 -1.6122,-7.72934 -0.5098,-2.42617 -1.3737,-6.96611 -1.92,-10.08863 -1.4274,-8.16046 -2.0693,-10.71071 -4.9284,-19.586 -2.8974,-8.99488 -3.8759,-14.63128 -3.6653,-21.11515 0.1721,-5.30089 0.9365,-8.80517 2.752,-12.61674 3.766,-7.90647 10.7036,-12.56346 20.9171,-14.04101 6.3636,-0.92065 12.1925,0.85491 16.6866,5.08269 3.43,3.22708 5.5032,7.11405 6.3384,11.88435 0.6175,3.52649 -0.5061,22.48353 -0.5942,33.72747 -0.065,8.27035 -0.6915,18.92718 0.049,24.81189 0.4453,3.53994 0.5463,5.14871 0.5433,8.66987 -0.012,4.04786 -0.039,4.45019 -0.5399,6.30849 -1.6343,6.04597 -5.1343,9.65446 -10.788,11.12291 -1.5658,0.40662 -2.5293,0.51384 -5.1444,0.57206 -1.7701,0.0394 -3.6706,-0.0103 -4.2238,-0.10808 z m -5.7882,-34.89877 c 0.9555,-0.39912 1.4122,-0.82228 1.8825,-1.74369 0.9779,-1.91592 0.089,-3.34621 -2.3357,-3.75806 -3.4665,-0.58884 -5.2332,-2.43618 -6.2704,-6.55699 -0.5311,-2.10956 -0.4749,-7.79758 0.1102,-11.16064 1.1033,-6.3488 3.2479,-12.93879 6.2822,-19.30398 1.3416,-2.81488 3.6298,-7.03223 3.817,-7.03555 0.066,-0.004 0.7497,0.69933 1.5169,1.55666 9.0282,10.08957 14.0986,21.7118 13.1689,30.18512 -0.3634,3.31184 -0.5841,3.93864 -3.0096,8.54758 -0.6901,1.31161 -0.831,1.77232 -0.8309,2.71769 2e-4,1.50505 0.4861,2.41235 1.5967,2.98284 1.7744,0.91135 3.6489,-0.20095 4.733,-2.80776 0.4033,-0.96946 1.0052,-4.54881 1.3241,-7.87447 0.2991,-3.11894 0.14,-8.9873 -0.3198,-11.77923 -1.2028,-7.30799 -5.1318,-16.62324 -9.4025,-22.29215 -1.6166,-2.14617 -4.3355,-4.79083 -6.247,-6.07682 -2.3774,-1.59934 -2.5166,-1.62247 -3.8232,-0.63623 -6.7964,5.13003 -11.4428,15.79488 -12.7973,29.37385 -0.2683,2.68946 -0.2643,9.60516 0.014,11.29024 0.3874,2.41101 1.39,6.04417 2.0791,7.53538 1.5223,3.2933 3.4432,5.65337 5.392,6.62454 1.1951,0.59529 2.0677,0.65453 3.1278,0.21186 z m 51.7274,-9.74611 c -5.5621,-0.87085 -9.4453,-3.53566 -11.602,-7.96171 -2.0787,-4.26604 -2.4343,-8.72947 -1.4108,-17.66356 0.5592,-4.87425 0.622,-6.02343 0.6209,-11.36164 -6e-4,-3.92903 -0.1706,-8.79731 -0.5027,-14.38483 -0.9725,-16.3737 -1.2198,-30.20147 -0.6033,-33.72769 0.8336,-4.76996 2.9059,-8.65645 6.335,-11.88252 4.4929,-4.22667 10.3212,-6.00048 16.6851,-5.07803 13.0691,1.89424 20.9862,9.17793 23.2426,21.38311 0.4404,2.38198 0.6082,8.27068 0.3111,10.92088 -0.5664,5.05384 -1.5066,9.16716 -3.5367,15.47428 -2.7813,8.64087 -3.4759,11.36322 -4.7206,18.49974 -1.1139,6.38838 -3.0722,16.20693 -4.3513,21.81781 -1.6946,7.43287 -5.4228,11.82179 -11.5342,13.57861 -1.1797,0.33909 -2.1878,0.44864 -4.626,0.50275 -1.7145,0.0379 -3.6529,-0.0147 -4.3071,-0.11726 z m 16.1294,-35.09741 c 1.9487,-0.97064 3.8687,-3.33012 5.3902,-6.62302 0.6888,-1.49097 1.6903,-5.1239 2.0772,-7.53492 0.2701,-1.68471 0.2723,-8.60056 0.011,-11.28996 -1.3583,-13.57942 -6.0076,-24.24561 -12.8055,-29.37747 -1.3068,-0.98675 -1.4459,-0.96372 -3.8228,0.63505 -1.9114,1.28559 -4.6294,3.92949 -6.2454,6.07509 -4.2668,5.6647 -8.1817,14.94864 -9.3994,22.28971 -0.4578,2.75988 -0.614,8.65119 -0.313,11.78351 0.3196,3.32155 0.9228,6.90108 1.3258,7.87029 1.0849,2.60717 2.9595,3.71955 4.7339,2.80922 1.1108,-0.56979 1.5965,-1.47723 1.5963,-2.98224 -10e-5,-0.94538 -0.1413,-1.40602 -0.8318,-2.71793 -2.4269,-4.6095 -2.6477,-5.23629 -3.0119,-8.5483 -0.933,-8.48059 4.1274,-20.08594 13.1604,-30.18147 0.7669,-0.85708 1.4492,-1.55735 1.5164,-1.55608 0.1926,0.004 2.4971,4.26302 3.8625,7.13704 5.5114,11.60804 8.0063,23.9465 6.2165,30.74518 -1.026,3.89643 -2.713,5.59674 -6.1283,6.17591 -1.1618,0.19709 -1.5252,0.35704 -2.0865,0.91805 -0.6279,0.62792 -0.6724,0.75493 -0.5842,1.67157 0.1192,1.23734 0.8958,2.31502 2.0438,2.83643 1.1372,0.51619 2.0708,0.47802 3.3025,-0.13552 z"
       id="path4573"
       inkscape:connector-curvature="0"
       sodipodi:nodetypes="cscsscsssccascccccccccccccsccccccccscccccccccccccscscccsccccccccccsscccccccccccccccc" />
    <path
       style="fill:#5b5b5b;fill-opacity:1;stroke:#4a4a4a;stroke-width:3;stroke-miterlimit:4;stroke-dasharray:none;stroke-opacity:1"
       d="m -1401.7713,-20.893499 2.2263,-7.567 3.224,2.7186 c 14.9233,12.5836 30.7524,2.414 37.3233,-23.9789 1.3473,-5.4115 1.9514,-6.5815 2.8086,-5.4396 5.4243,7.2249 9.0104,10.8257 9.61,9.6491 1.2077,-2.3698 5.2834,-17.8472 4.8214,-18.3092 -0.248,-0.248 -3.4507,0.5243 -7.117,1.7163 -3.6663,1.192 -6.9021,1.9312 -7.1907,1.6426 -0.8929,-0.8929 2.5209,-11.0189 6.133,-18.1915 6.2501,-12.411 15.7229,-19.2855 23.5009,-17.0548 l 3.2118,0.9211 -6.9386,2.8863 c -3.8162,1.5875 -7.3253,3.2253 -7.7979,3.6396 -0.4727,0.4142 2.9023,3.274 7.5,6.3551 l 8.3593,5.6019 0.5,-8.7459 0.5,-8.7459 2.2092,2.8176 c 2.276,2.9028 6.2908,12.5967 6.2908,15.1892 0,0.8044 0.9,1.4625 2,1.4625 1.2668,0 2,-0.6667 2,-1.8185 0,-3.9734 -3.2259,-12.3217 -6.3322,-16.3874 l -3.2809,-4.2941 7.3333,-3.0504 7.3334,-3.050401 -8.3051,-5.6996 c -4.5679,-3.1348 -8.6299,-5.6996 -9.0268,-5.6996 -0.397,0 -0.7217,3.3323 -0.7217,7.4052 l 0,7.405101 -5.9136,-0.536201 c -4.7393,-0.4297 -6.7832,-0.1152 -10.2933,1.584001 -8.4393,4.0854 -15.835,14.5103 -20.5371,28.9486 l -2.7429,8.4226 -5.5879,-6.2281 -5.5878,-6.228 -2.7519,9.6969 c -1.5135,5.3333 -2.5841,9.8647 -2.379,10.0697 0.205,0.2051 3.8726,-0.707 8.1501,-2.0267 l 7.7774,-2.3996 -0.6374,3.1932 c -2.0674,10.3574 -8.0793,23.4333 -12.3004,26.7536 -4.1889,3.295 -9.5541,4.2348 -13.873,2.4303 -4.4255,-1.8491 -7.4923,-4.408 -6.7406,-5.6243 0.2945,-0.4764 2.6464,-0.9195 5.2264,-0.9846 2.5801,-0.065 5.9419,-0.4026 7.4708,-0.75 l 2.7798,-0.6317 -6.2798,-7.6968 c -3.4539,-4.2332 -6.5479,-7.7207 -6.8757,-7.75 -0.3277,-0.029 -1.5765,3.3218 -2.775,7.4468 -1.1986,4.125 -2.3838,7.5 -2.6339,7.5 -1.0714,0 -4.6203,-8.4317 -5.9847,-14.2185 -2.7311,-11.5841 -2.8972,-11.027 16.4515,-55.165601 l 17.9222,-40.8842 -18.675,-21.3658 c -10.2712,-11.7513 -18.9817,-21.3659 -19.3566,-21.3659 -0.5169,0 -25.3905,27.9798 -36.6088,41.1806 -1.269,1.4933 0.589,6.2905 16.664,43.0265 14.6768,33.540701 18.0922,42.197901 18.0922,45.859301 0,5.8329 2.4088,15.188 5.4344,21.1054 1.3138,2.5695 2.1285,4.932 1.8105,5.25 -0.318,0.318 -2.6407,0.6314 -5.1616,0.6965 -2.5208,0.065 -5.8342,0.4026 -7.3631,0.75 l -2.7798,0.6317 6.2798,7.6968 c 3.4539,4.2332 6.5271,7.7207 6.8295,7.75 0.3023,0.029 1.5514,-3.352 2.7759,-7.5139 z"
       id="path4559"
       inkscape:connector-curvature="0" />
    <path
       style="fill:#5b5b5b;fill-opacity:1;stroke:#4a4a4a;stroke-width:2.99999976;stroke-miterlimit:4;stroke-dasharray:none;stroke-opacity:1"
       d="m -1916.8839,-712.81942 c -9.1628,-1.29188 -17.9932,-5.66087 -24.7969,-12.26866 -14.7394,-14.31496 -17.7971,-36.61365 -7.4667,-54.45188 3.4601,-5.97457 11.0433,-13.23286 17.1002,-16.36727 10.7595,-5.56808 21.4164,-6.81506 32.8723,-3.84635 13.9395,3.61214 25.6789,14.8366 30.4807,29.14392 2.1672,6.45729 2.6917,15.64026 1.2922,22.62693 -3.3078,16.51476 -16.079,29.89928 -32.5297,34.09184 -4.8476,1.23542 -12.4025,1.71291 -16.9521,1.07147 z m 14.1973,-3.95104 c 5.5101,-1.13814 12.3342,-4.03443 13.5741,-5.76106 0.9757,-1.35888 -0.349,-9.15894 -2.3818,-14.02438 -0.6915,-1.65504 -0.9413,-1.82074 -2.4178,-1.60407 -1.4939,0.21924 -1.9127,0.75959 -4.518,5.82773 -3.4679,6.7463 -6.5884,10.76626 -10.8369,13.96003 l -3.1859,2.39493 2.9633,0 c 1.6299,0 4.6912,-0.35693 6.803,-0.79318 z m -20.4308,-19.62797 c 2.0224,-0.58108 7.4592,-2.55423 12.0818,-4.38487 l 8.4047,-3.32846 0.155,-2.08606 c 0.1548,-2.08298 0.1509,-2.08755 -2.6264,-3.06614 -11.4311,-4.02778 -28.8815,-11.08021 -36.0082,-14.55243 -4.6957,-2.28784 -8.7125,-4.22033 -8.9262,-4.29449 -0.7737,-0.26856 -1.6095,5.2454 -1.6588,10.94393 -0.053,6.17154 0.9164,11.30453 3.0912,16.35995 1.1679,2.71487 2.7223,3.95545 6.532,5.21298 3.1336,1.03438 14.1875,0.56521 18.9549,-0.80441 z m 31.2656,-6.1125 c 2.9099,-1.5048 3.5633,-5.13607 1.3266,-7.37286 -1.4745,-1.47438 -3.3362,-1.64083 -5.55,-0.49595 -3.4419,1.77992 -3.5782,6.12015 -0.2522,8.0277 1.4347,0.82286 2.6614,0.7793 4.4756,-0.15889 z m 20.7043,-4.19705 c 0.7787,-2.88057 1.805,-14.44609 1.2819,-14.44609 -0.1227,0 -1.5746,1.27816 -3.2266,2.84033 -1.6518,1.56209 -5.1326,4.2092 -7.735,5.88237 -4.5672,2.93635 -4.7316,3.11004 -4.7316,4.99863 0,1.79231 0.1654,2.01248 1.9699,2.62241 3.8265,1.29337 10.8776,2.44008 11.2446,1.82865 0.1897,-0.31595 0.7282,-1.99277 1.1968,-3.7263 z m -19.8016,-10.76892 c 0.3802,-1.30011 1.2758,-5.23019 1.9902,-8.73359 2.1011,-10.30348 1.6455,-19.05843 -1.2914,-24.8155 -1.1401,-2.23463 -4.4712,-4.02744 -10.5769,-5.69246 -4.2109,-1.14829 -15.1952,-1.27783 -19.2947,-0.22756 l -2.7828,0.71295 3.1705,2.86918 c 4.2764,3.86997 9.4722,10.41365 13.0114,16.38655 2.8227,4.76343 9.621,18.50446 10.3765,20.97314 0.3201,1.04627 0.6634,1.18836 2.5381,1.05059 2.0758,-0.15257 2.1974,-0.25999 2.8591,-2.5233 z"
       id="path4517"
       inkscape:connector-curvature="0" />
    <path
       style="fill:#5b5b5b;fill-opacity:1;stroke:#4a4a4a;stroke-width:3.00000024;stroke-miterlimit:4;stroke-dasharray:none;stroke-opacity:1"
       d="m -1498.061,-400.22303 c -3.7075,-1.04129 -7.3125,-4.48655 -8.3042,-7.93625 -0.7545,-2.62446 -0.5611,-6.18849 0.4653,-8.57256 0.9176,-2.1315 4.6809,-6.05308 5.8087,-6.05308 0.6273,0 0.7095,-0.3529 0.2503,-1.07466 -0.2001,-0.3146 -0.5035,-0.35059 -0.891,-0.10571 -0.3232,0.20422 -0.8183,0.37405 -1.1002,0.37741 -0.6722,0.008 -2.1579,-3.4769 -1.8892,-4.43163 0.1148,-0.40804 0.3106,-1.10049 0.435,-1.53876 0.152,-0.53562 0.036,-0.79687 -0.3545,-0.79687 -1.2512,0 -2.2794,-1.36219 -2.4203,-3.20617 -0.076,-0.99642 -0.4136,-2.34349 -0.7499,-2.99351 -1.3117,-2.53461 -1.9856,-5.81968 -1.7969,-8.75888 0.1598,-2.48912 0.5109,-3.55849 2.647,-8.06435 3.0915,-6.52082 4.1886,-10.4971 3.8559,-13.97459 -0.2389,-2.4968 -0.219,-2.5639 1.3828,-4.6839 2.1089,-2.79114 4.9987,-5.04805 9.0108,-7.03738 3.994,-1.98031 4.6113,-1.87438 6.8521,1.17578 l 1.6821,2.28955 0.01,-2.97256 c 0.01,-1.63491 0.1379,-3.17251 0.299,-3.4169 0.9574,-1.45209 5.7107,-0.7981 7.8516,1.08029 1.5633,1.37151 2.3679,3.21166 3.2317,7.39017 0.756,3.65729 2.4297,7.34096 4.3584,9.59261 1.5013,1.75257 6.3217,5.62941 10.4933,8.43943 4.4334,2.9863 7.9987,4.39772 16.1658,6.39962 6.0244,1.47667 8.1156,2.16175 9.4961,3.1108 3.1567,2.17026 4.963,5.60362 5.3761,10.21904 0.2791,3.11652 -0.2365,4.38293 -2.1897,5.3786 -1.2818,0.65346 -1.6127,1.06922 -1.8361,2.30728 -0.1499,0.8306 -0.6377,2.27624 -1.0841,3.21254 -0.7527,1.57875 -0.7656,1.77257 -0.1777,2.66928 l 0.6341,0.9669 2.1183,-0.93615 c 2.6293,-1.16189 3.0936,-0.94497 4.6741,2.1835 1.6775,3.32059 1.5853,4.07361 -0.7037,5.75175 -2.1709,1.59147 -4.5145,2.44701 -7.727,2.82069 -2.9347,0.34137 -3.6899,-0.11135 -4.7041,-2.82024 -1.2142,-3.24282 -1.1213,-3.68644 0.9663,-4.60919 l 1.7932,-0.7926 -0.8297,-1.62517 c -0.8206,-1.60727 -0.8492,-1.62252 -2.5951,-1.38339 -1.3693,0.18754 -2.2513,0.027 -3.9315,-0.71547 -1.9481,-0.86087 -2.2184,-0.89445 -2.6842,-0.3335 -0.4357,0.52459 -0.3917,0.69371 0.2767,1.06387 0.437,0.24207 1.7086,1.34869 2.8257,2.45917 2.4297,2.41536 3.3518,4.7666 3.3518,8.54675 0,2.16123 -0.2257,3.10577 -1.2148,5.08375 -2.2274,4.45403 -5.7474,6.62334 -10.7471,6.62334 -3.4175,0 -5.6949,-0.82731 -8.1098,-2.94606 -4.0667,-3.56791 -5.1943,-9.77303 -2.6733,-14.71091 0.4419,-0.86549 0.9853,-1.686 1.2078,-1.82338 0.2225,-0.13736 0.4045,-0.6034 0.4045,-1.03562 0,-0.43222 0.2691,-0.88905 0.598,-1.01519 0.8643,-0.3314 0.7345,-1.23841 -0.2527,-1.76637 -0.5562,-0.2974 -4.8031,-0.51705 -12.261,-0.63412 -9.8582,-0.15476 -11.5142,-0.0957 -12.175,0.43431 -0.6382,0.51177 -0.6914,0.77458 -0.3214,1.58593 0.3495,0.76664 0.3215,1.0736 -0.1323,1.44999 -0.6179,0.51236 -0.7652,1.65158 -0.2767,2.13965 0.3178,0.31758 0.3538,0.59657 0.735,5.68507 0.2184,2.9169 0.1409,3.4868 -0.7343,5.39702 -0.5382,1.17466 -1.5306,2.76408 -2.2054,3.53204 -2.6854,3.05628 -8.0605,4.55618 -12.1807,3.39899 z m 8.5041,-23.48182 c 0,-0.28682 -0.2634,-0.86953 -0.5855,-1.2949 -0.3219,-0.42538 -0.5911,-1.17683 -0.598,-1.66989 -0.01,-0.744 -0.2331,-0.89581 -1.3086,-0.89258 -1.1687,0.004 -5.4826,1.68463 -5.4826,2.13657 0,1.09634 0.648,1.44832 2.7341,1.48515 1.2376,0.0219 2.6987,0.18326 3.2469,0.35871 1.5051,0.48163 1.9937,0.45147 1.9937,-0.12306 z m 43.4067,-1.03984 c 0.509,-0.76602 0.4233,-0.87064 -1.3284,-1.62093 -2.6318,-1.12731 -3.7183,-1.05226 -4.2502,0.29363 -0.2382,0.60263 -0.567,1.36463 -0.7306,1.69334 -0.2527,0.50781 0.1582,0.58676 2.7338,0.52524 2.5693,-0.0614 3.1143,-0.19722 3.5754,-0.89128 z"
       id="path4456"
       inkscape:connector-curvature="0" />
    <path
       style="fill:#5b5b5b;fill-opacity:1;stroke:#4a4a4a;stroke-width:3;stroke-miterlimit:4;stroke-dasharray:none;stroke-opacity:1"
       d="m -1545.7185,-730.70427 c 0.6225,-0.45306 0.552,-1.30223 -2.6367,-31.723 -1.8019,-17.19161 -3.224,-31.30951 -3.1601,-31.37311 0.064,-0.0636 1.9267,0.73308 4.1396,1.77039 12.9322,6.06212 24.9527,9.96569 38.7912,12.59707 10.4156,1.98053 17.0628,2.04721 19.7962,0.19858 3.8061,-2.5741 13.9007,-12.56308 23.2724,-23.0288 3.9481,-4.40901 4.3634,-4.95448 4.0977,-5.38242 -0.092,-0.14854 -1.7585,-0.99435 -3.7027,-1.87958 l -3.535,-1.60951 -15.9955,5.11974 c -15.4958,4.95977 -16.0283,5.10413 -17.0434,4.62015 -0.5764,-0.27478 -23.7837,-11.3645 -51.5718,-24.64383 -57.4507,-27.45438 -52.8377,-25.5506 -61.9984,-25.58675 -7.987,-0.0315 -13.6177,1.41384 -16.7044,4.288 -2.5389,2.3641 -2.7421,5.40826 -0.6442,9.65354 1.12,2.26651 6.2949,7.5538 8.7191,8.90852 0.9306,0.52008 9.3736,4.62231 18.762,9.11609 l 17.0699,8.1705 12.4534,35.32008 c 6.8494,19.42604 12.7014,35.87736 13.0045,36.55849 0.303,0.68111 0.9517,1.61303 1.4414,2.07092 0.6871,0.64238 14.0695,7.30044 14.6736,7.30044 0.072,0 0.4194,-0.20949 0.7712,-0.46551 z m 33.331,-99.16714 c 12.1413,-7.78736 14.0583,-9.12815 14.1483,-9.89623 0.097,-0.82354 -0.163,-1.01702 -3.5533,-2.64753 -9.7259,-4.67757 -10.594,-5.03618 -12.2164,-5.04632 -1.2167,-0.008 -6.0947,1.55706 -20.6292,6.61711 -10.4696,3.64489 -19.0358,6.73273 -19.0358,6.86187 0,0.1945 26.7995,13.16155 27.1347,13.12926 0.059,-0.006 6.4274,-4.06387 14.1517,-9.01816 z"
       id="path4442"
       inkscape:connector-curvature="0" />
    <path
       style="fill:#5b5b5b;fill-opacity:1;stroke:#4a4a4a;stroke-width:3;stroke-miterlimit:4;stroke-dasharray:none;stroke-opacity:1"
       d="m -1319.7144,-529.89798 c 2.0244,-0.075 4.6501,1.01069 9.9414,3.61133 4.8603,2.38885 7.6245,4.36214 7.8554,5.60742 0.5053,2.7242 -2.9436,13.57813 -4.3144,13.57813 -0.628,0 -1.6818,-0.53922 -2.3418,-1.19922 -0.9334,-0.93333 -1.199,0.12222 -1.209,4.75 -0.01,4.24665 -0.7042,7.38061 -2.4375,10.94922 -4.571,9.41077 1.6252,8.62754 11.4649,-1.44922 4.9339,-5.05276 8.713,-7.81626 14.5722,-10.66016 7.4371,-3.60974 8.4734,-3.84153 17.3184,-3.86523 6.6491,-0.0178 9.5313,0.34151 9.832,1.22461 0.234,0.68722 -0.1749,1.43858 -0.9082,1.66992 -0.7332,0.23134 -4.482,1.38461 -8.332,2.5625 -11.9259,3.64863 -26.5,15.10423 -26.5,20.83008 0,0.83183 1.2976,3.57646 2.8847,6.09961 5.5926,8.89096 7.7013,20.84357 6.6172,37.5039 -1.0192,15.6622 -1.0205,16.25747 -0.1015,21.67383 1.022,6.02284 -0.8427,8.1442 -6.7735,7.71094 -3.7823,-0.2763 -4.152,-0.55436 -4.4238,-3.32617 -0.1631,-1.66348 0.3366,-4.53052 1.1113,-6.37305 1.0681,-2.54025 1.1661,-4.30756 0.4043,-7.30859 -0.6997,-2.75653 -0.665,-5.06006 0.1114,-7.58985 0.9518,-3.10132 0.8265,-4.12049 -0.8575,-6.97461 -1.0847,-1.83847 -1.9726,-4.14225 -1.9726,-5.11914 0,-2.9397 -1.0672,-3.13162 -4.961,-0.89062 -3.4491,1.98504 -3.8982,2.81095 -6.375,11.71875 -2.9981,10.78302 -3.157,13.05607 -1.4843,21.1543 1.0298,4.98578 0.9629,6.04007 -0.5235,8.30859 -1.4454,2.20605 -2.4345,2.59961 -6.5449,2.59961 -3.4431,0 -5.6331,-0.62279 -7.5801,-2.1543 -2.4001,-1.88793 -2.6621,-2.62852 -2.123,-6 0.6141,-3.84023 0.6095,-3.8457 -2.8516,-3.8457 -3.1733,0 -3.5229,0.29757 -4.1269,3.51758 -1.033,5.50594 -4.6788,7.76695 -11.711,7.26367 -3.3131,-0.23712 -6.4212,-1.05607 -7.2832,-1.91797 -1.3382,-1.33829 -1.1709,-1.92253 1.5293,-5.32031 2.6362,-3.31724 3.0352,-4.62495 3.0352,-9.97071 0,-3.38381 -0.7685,-8.83523 -1.7071,-12.11328 -0.9386,-3.27806 -1.856,-8.65898 -2.039,-11.95898 -0.1831,-3.3 -0.5931,-8.78528 -0.9102,-12.18945 -0.6521,-7.00136 2.0348,-17.68851 6.2598,-24.89844 2.9349,-5.00842 3.0169,-8.27401 0.3379,-13.52539 -1.685,-3.30275 -2.3164,-3.82058 -3.4864,-2.84961 -2.1885,1.81631 -4.3053,0.43304 -6.5253,-4.26563 -1.1099,-2.34918 -3.0116,-5.95334 -4.2247,-8.00976 -2.8442,-4.82176 -2.0646,-6.0849 6.8985,-11.1875 6.7052,-3.81721 7.1984,-3.93569 17.7988,-4.23633 7.6184,-0.21607 11.6,-0.76613 13.2149,-1.82422 1.227,-0.80402 2.2267,-1.26554 3.4414,-1.31055 z m -18.502,89.06446 c -0.1019,-0.002 -0.163,0.005 -0.1797,0.0215 -0.1331,0.13316 0.7343,4.62288 1.9278,9.97656 1.1935,5.35368 2.5196,9.73438 2.9472,9.73438 0.4276,0 2.4355,-1.521 4.4629,-3.37891 3.3348,-3.05618 3.6914,-3.87946 3.7364,-8.64843 l 0.049,-5.27149 -6.4415,-1.32617 c -3.0996,-0.63858 -5.7886,-1.09322 -6.5019,-1.10742 z"
       id="path4425"
       inkscape:connector-curvature="0"
       sodipodi:nodetypes="sscsccssssscsssscscccscsssscsscscscsssccsccscsscsccssccccc" />
    <path
       style="fill:#5b5b5b;fill-opacity:1;stroke:#4a4a4a;stroke-width:3;stroke-miterlimit:4;stroke-dasharray:none;stroke-opacity:1"
       d="m -1983.579,-116.69495 c -5.4679,-0.65733 -9.276,-2.38309 -12.8638,-5.82973 -2.6407,-2.53671 -4.4955,-5.59606 -5.5312,-9.12333 -0.8721,-2.9704 -0.8926,-11.60358 -0.032,-13.26953 1.3356,-2.58364 -4.9033,-2.40842 81.7187,-2.29492 l 78.7481,0.10316 1.31,1.30957 c 1.2958,1.29532 1.3115,1.35665 1.4437,5.64083 0.1672,5.41294 -0.3477,8.30658 -2.1211,11.9191 -2.5126,5.11836 -6.765,8.85172 -12.1781,10.69151 l -2.6648,0.90569 -63.314,0.046 c -34.8226,0.0253 -63.8548,-0.019 -64.5161,-0.0984 z m -13.2267,-37.16963 c -2.2324,-1.03996 -4.2968,-3.15504 -5.2073,-5.33488 -0.8417,-2.01509 -0.8326,-10.42946 0.014,-12.45485 1.4531,-3.47922 4.7497,-5.94068 8.5607,-6.39223 l 1.9901,-0.23581 9.3447,7.20639 c 5.1396,3.96351 9.7386,7.41465 10.2199,7.66921 1.4133,0.74728 3.1107,0.53714 4.7792,-0.59165 0.8572,-0.57997 5.0558,-3.7611 9.3304,-7.06921 4.2744,-3.30809 8.2416,-6.25997 8.8158,-6.55971 1.3377,-0.69828 6.3393,-0.71043 7.656,-0.0187 0.551,0.28952 4.7887,3.46683 9.4169,7.06069 4.6284,3.59384 8.9811,6.80718 9.6729,7.14076 2.364,1.13987 3.4559,0.56308 13.1335,-6.93711 4.9771,-3.85721 9.5122,-7.18919 10.0779,-7.40441 1.5453,-0.58777 6.0662,-0.47573 7.3079,0.18111 0.5951,0.31482 5.0492,3.64528 9.898,7.40102 4.8487,3.75572 9.3118,6.93998 9.9179,7.07611 0.606,0.13613 1.5985,0.13839 2.2055,0.005 0.6069,-0.13336 5.4306,-3.58996 10.7193,-7.6813 9.614,-7.43749 9.6159,-7.43879 11.32,-7.21311 3.2352,0.42846 6.3069,2.68951 7.9517,5.853 1.0497,2.01894 1.2971,9.6108 0.4012,12.30933 -0.875,2.63544 -2.6248,4.64744 -5.1262,5.89443 l -2.083,1.0384 -74.1548,-0.003 -74.155,-0.003 -2.0065,-0.93476 z m -0.4973,-30.36773 c -1.9536,-0.96738 -3.5119,-2.66485 -4.5621,-4.9691 -0.5812,-1.27586 -0.7323,-2.63331 -0.7394,-6.64328 -0.013,-5.88075 0.5389,-7.99331 2.6404,-10.15798 1.9632,-2.02237 3.3445,-2.62871 6.9154,-3.03615 2.1926,-0.25019 4.5989,-0.94711 8.1141,-2.35007 8.5802,-3.42438 10.1562,-3.42525 18.8027,-0.009 5.1082,2.01751 5.585,2.13023 9.0006,2.12767 3.4155,-0.002 3.8724,-0.11141 8.633,-2.05728 8.5449,-3.49268 10.1519,-3.49868 18.8321,-0.0704 5.0935,2.01175 5.5948,2.13072 9.0004,2.1365 3.4302,0.006 3.8518,-0.0947 8.6215,-2.05515 8.6356,-3.54938 10.0547,-3.55384 18.9003,-0.0596 5.0333,1.98848 5.5428,2.10892 8.9439,2.11468 3.4301,0.006 3.8517,-0.0947 8.6215,-2.05515 8.6014,-3.53536 10.0026,-3.54447 18.8531,-0.12259 3.4927,1.35038 6.2699,2.15539 8.1726,2.36886 3.5901,0.40275 5.4579,1.27137 7.258,3.37509 2.0789,2.42973 2.69,5.02537 2.5011,10.62509 -0.1747,5.18139 -0.7377,6.81531 -3.1674,9.19166 -3.2538,3.18254 -6.8923,3.22664 -14.4493,0.17512 -8.7011,-3.51351 -10.4401,-3.54307 -18.4937,-0.31428 -8.4107,3.37202 -10.317,3.40534 -17.9718,0.31428 -8.7013,-3.51351 -10.4403,-3.54307 -18.4938,-0.31428 -8.4107,3.37202 -10.317,3.40534 -17.9719,0.31428 -8.6921,-3.50983 -10.3318,-3.54 -18.4343,-0.33906 -8.598,3.39669 -10.3764,3.43014 -18.0314,0.33906 -8.5688,-3.46005 -10.5082,-3.51931 -17.8831,-0.54634 -7.6785,3.09544 -10.5715,3.52444 -13.6125,2.01856 z m -1.4881,-35.43533 c -2.9856,-1.0638 -3.9242,-3.47707 -2.8243,-7.26173 5.4639,-18.80304 32.1248,-34.06118 65.7772,-37.64459 6.9938,-0.74472 21.918,-0.853 28.3963,-0.20603 32.2172,3.21748 57.2329,15.97376 65.7755,33.5409 2.4333,5.00379 2.7959,8.13202 1.167,10.06856 -0.5917,0.70336 -1.7399,1.46315 -2.5523,1.68891 -0.9846,0.27355 -26.9278,0.40524 -77.8144,0.39501 -64.6714,-0.0131 -76.5801,-0.1019 -77.925,-0.58103 z m 29.1728,-13.00444 c 1.4062,-0.53487 2.6692,-2.01729 2.6692,-3.13307 0,-3.60511 -5.4954,-5.05397 -8.1016,-2.13597 -1.6744,1.87472 -1.352,3.42005 1.0144,4.86357 1.3965,0.85183 2.8852,0.98846 4.418,0.40547 z m 50.9167,-0.18264 c 1.4563,-0.60875 2.6441,-2.01563 2.6441,-3.1318 0,-0.38843 -0.5066,-1.27344 -1.1257,-1.9667 -0.9084,-1.01694 -1.5084,-1.29355 -3.1056,-1.43171 -4.7024,-0.40673 -6.8971,4.25224 -2.988,6.34256 1.6678,0.89177 2.7813,0.93745 4.5752,0.18765 z m 51.6679,0.18264 c 3.1892,-1.21298 3.5699,-4.73576 0.6737,-6.234 -3.4967,-1.80893 -8.2704,0.98097 -6.8846,4.02361 0.9213,2.02276 3.9089,3.08599 6.2109,2.21039 z m -77.393,-14.47219 c 1.7059,-0.47393 3.1238,-2.05197 3.1238,-3.47631 0,-0.54752 -0.5163,-1.49541 -1.1712,-2.15076 -0.9718,-0.97213 -1.5011,-1.17155 -3.1057,-1.17031 -5.1511,0.003 -6.7372,5.0641 -2.0971,6.69058 1.7136,0.6007 1.498,0.59361 3.2502,0.1068 z m 51.2923,0 c 1.7058,-0.47393 3.1239,-2.05197 3.1239,-3.47631 0,-0.54752 -0.5163,-1.49541 -1.1714,-2.15076 -0.9571,-0.95746 -1.5104,-1.17181 -3.0254,-1.17181 -6.2434,0 -6.7665,6.13551 -0.612,7.17742 0.1102,0.0187 0.8684,-0.1517 1.6849,-0.37854 z"
       id="path4400"
       inkscape:connector-curvature="0" />
    <g
       id="g4502"
       transform="translate(0,-30)">
      <path
         inkscape:connector-curvature="0"
         id="rect4492"
         d="m -1541.4026,-553.43614 c -2.216,0 -4,1.784 -4,4 l 0,50.3379 c 0,2.2159 1.784,4 4,4 l 73.6718,0 c 2.216,0 4,-1.7842 4,-4 l 0,-50.3379 c 0,-2.216 -1.784,-4 -4,-4 l -20.4004,0 a 16.351845,16.351845 0 0 1 0,0.09 16.351845,16.351845 0 0 1 -7.1543,13.5 l 24.6895,-0.4219 0.75,35.5 -12,-4.5 -0.75,-3.5 4.25,-8 -0.5,-9 -9.75,-1.5 -3.25,8.25 4,9 -0.25,4 -10.75,7 -0.9434,-34.6777 a 16.351845,16.351845 0 0 1 -4.6933,0.7012 16.351845,16.351845 0 0 1 -16.3516,-16.3516 16.351845,16.351845 0 0 1 0,-0.09 l -20.5761,0 z"
         style="opacity:1;fill:#5b5b5b;fill-opacity:1;stroke:none;stroke-width:3;stroke-linecap:round;stroke-linejoin:miter;stroke-miterlimit:4;stroke-dasharray:none;stroke-dashoffset:0;stroke-opacity:1" />
      <path
         inkscape:connector-curvature="0"
         id="path4386"
         d="m -1517.5735,-577.84529 0.1269,14.2773 c 0.1212,13.6708 0.1651,14.3485 1.0352,15.9688 1.8348,3.4167 5.1829,6.0325 8.9199,6.9668 5.3536,1.3384 11.8425,-1.7491 14.6445,-6.9668 0.8701,-1.6203 0.9139,-2.298 1.0352,-15.9688 l 0.1269,-14.2773 -12.9453,0 -12.9433,0 z m 3.0039,2.9609 9.9414,0 9.9414,0 -0.02,11.5274 c -0.014,8.5184 -0.1655,11.9423 -0.584,13.1152 -0.9033,2.5312 -2.7178,4.5565 -5.0586,5.6465 -1.3721,0.6389 -2.9386,1.0078 -4.2793,1.0078 -2.7593,0 -6.0905,-1.5497 -7.6094,-3.541 -2.1576,-2.8289 -2.2944,-3.7911 -2.3144,-16.2285 l -0.018,-11.5274 z m 9.75,14.9102 c -1.3626,0.03 -2.7734,0.5326 -4.0664,1.6679 -3.519,3.0897 -2.6058,8.8738 1.6972,10.7481 2.6558,1.1568 5.5833,0.4188 7.5332,-1.8984 3.9505,-4.6949 -0.2978,-10.6236 -5.164,-10.5176 z m 0.1894,3.2812 c 0.9166,0 1.8045,0.3219 2.3282,0.8457 0.5238,0.5238 0.8457,1.4096 0.8457,2.3262 0,0.9166 -0.3219,1.8024 -0.8457,2.3262 -0.5237,0.5237 -1.4116,0.8476 -2.3282,0.8476 -0.9166,0 -1.8023,-0.3239 -2.3261,-0.8476 -0.5237,-0.5238 -0.8457,-1.4096 -0.8457,-2.3262 0,-0.9166 0.322,-1.8024 0.8457,-2.3262 0.5238,-0.5238 1.4095,-0.8457 2.3261,-0.8457 z m -26.7734,1.6914 c -10.043,0 -10.5641,0.04 -12.3418,0.9512 -3.5973,1.8446 -3.4285,0.2748 -3.3008,30.6406 0.1105,26.2766 0.1269,26.7479 0.9883,27.9219 0.4818,0.6568 1.5285,1.5268 2.3262,1.9336 1.3489,0.6878 4.091,0.7402 39.1015,0.7402 35.0105,0 37.7546,-0.052 39.1035,-0.7402 0.7979,-0.4068 1.8443,-1.2768 2.3262,-1.9336 0.8615,-1.174 0.8778,-1.6453 0.9883,-27.9219 0.1277,-30.3658 0.2965,-28.796 -3.3008,-30.6406 -1.7782,-0.9118 -2.2978,-0.9512 -12.3672,-0.9512 l -10.5136,0 0.1328,1.586 0.1308,1.5859 10.6231,0.1133 c 10.1595,0.108 10.6574,0.1514 11.4218,0.9961 0.7628,0.8426 0.804,2.0674 0.9141,26.6679 l 0.1152,25.7852 -1.246,1.2461 -1.2461,1.2461 c -14.2569,0.095 -23.5077,0 -37.0821,0 l -37.0801,0 -1.246,-1.2461 -1.2461,-1.2461 0.1152,-25.7852 c 0.1104,-24.6741 0.1487,-25.8218 0.9199,-26.6738 0.7788,-0.8604 1.167,-0.8906 11.5293,-0.8906 l 10.7207,0 0,-1.6934 0,-1.6914 -10.4863,0 z m 38.8086,13.1153 -2.125,1.5859 -2.125,1.5859 12.5019,0.1114 12.5,0.1132 0,16.2813 c 0,15.8679 -0.021,16.2604 -0.7871,15.4941 -0.4324,-0.4324 -2.1656,-1.3128 -3.8515,-1.957 -2.6051,-0.9954 -3.1525,-1.3829 -3.6543,-2.584 -0.778,-1.8619 -0.7455,-2.566 0.1816,-3.914 0.4247,-0.6177 1.0341,-1.7816 1.3555,-2.586 0.3215,-0.8044 0.9265,-1.8035 1.3437,-2.2207 0.6331,-0.6331 0.7578,-1.4941 0.7578,-5.207 l 0,-4.4473 -1.4355,-1.5683 c -1.2099,-1.3202 -1.7292,-1.5764 -3.2793,-1.6211 -1.0128,-0.029 -2.6498,-0.2814 -3.6387,-0.5586 -1.3607,-0.3815 -2.2327,-0.3869 -3.584,-0.0235 -3.9802,1.0718 -4.9704,2.6599 -4.9804,7.9356 0,3.4672 0.3677,5.2879 1.2226,6 0.1397,0.1163 0.8938,1.4971 1.6758,3.0683 1.1336,2.2871 1.3671,3.153 1.1445,4.3399 -0.3168,1.6887 -1.0991,2.3023 -4.5937,3.6016 -1.3479,0.501 -2.822,1.31 -3.2774,1.7988 -0.8178,0.8833 -0.8281,0.7915 -0.8281,-15.2949 0,-17.8385 0.2455,-16.2682 -2.4336,-15.4981 l -0.9511,0.2734 0,18.7266 c 0,10.2996 0.1261,18.8547 0.2812,19.0098 0.087,0.087 2.745,0.1571 6.4043,0.209 -0.2281,-0.6008 -0.3443,-1.2199 -0.3457,-1.8418 -2e-4,-3.963 4.561,-7.1758 10.1875,-7.1758 5.6265,0 10.1877,3.2128 10.1875,7.1758 0,0.6472 -0.132,1.291 -0.3809,1.914 l 6.6641,0 0,-21.3633 0,-21.3632 -12.0684,0 -12.0683,0 z m -44.8203,6.7675 0,1.4805 0,1.4805 14.8066,0 14.8067,0 0,-1.4805 0,-1.4805 -14.8067,0 -14.8066,0 z m 52.8613,5.6075 a 5.0625,7.1875 0 0 1 5.0625,7.1875 5.0625,7.1875 0 0 1 -5.0625,7.1875 5.0625,7.1875 0 0 1 -5.0625,-7.1875 5.0625,7.1875 0 0 1 5.0625,-7.1875 z m -52.8613,4.123 0,1.4805 0,1.4804 14.8066,0 14.8067,0 0,-1.4804 0,-1.4805 -14.8067,0 -14.8066,0 z m 0,9.7305 0,1.6914 0,1.6933 9.7304,0 9.7305,0 0,-1.6933 0,-1.6914 -9.7305,0 -9.7304,0 z"
         style="fill:#4a4a4a;fill-opacity:1" />
    </g>
    <g
       id="g4488"
       transform="translate(620,-200)">
      <path
         inkscape:connector-curvature="0"
         id="rect4482"
         d="m -2039.6777,-455.01132 c -3.324,0 -6,2.676 -6,6 l 0,14.8691 c 0,3.324 2.676,6 6,6 l 111.0371,0 c 3.324,0 6,-2.676 6,-6 l 0,-14.8691 c 0,-3.324 -2.676,-6 -6,-6 l -111.0371,0 z m -1.293,44.9004 c -2.216,0 -4,1.784 -4,4 l 0,43.2656 c 0,2.216 1.784,4 4,4 l 113.6231,0 c 2.216,0 4,-1.784 4,-4 l 0,-43.2656 c 0,-2.216 -1.784,-4 -4,-4 l -113.6231,0 z"
         style="opacity:1;fill:#5b5b5b;fill-opacity:1;stroke:none;stroke-width:3;stroke-linecap:round;stroke-linejoin:miter;stroke-miterlimit:4;stroke-dasharray:none;stroke-dashoffset:0;stroke-opacity:1" />
      <path
         inkscape:connector-curvature="0"
         id="path4371"
         transform="translate(-2662.5322,937.68983)"
         d="m 623.69727,-1394.0156 c -2.27314,0 -3.9074,0.6769 -5.53711,2.3066 -1.62971,1.6297 -2.30664,3.264 -2.30664,5.5371 l 0,83.1094 c 0,2.2731 0.67692,3.9054 2.30664,5.5352 1.62971,1.6297 3.26397,2.3066 5.53711,2.3066 l 109.35351,0 c 2.27313,0 3.9074,-0.6769 5.53711,-2.3066 1.62971,-1.6298 2.30469,-3.2621 2.30469,-5.5352 l 0,-83.1094 c 0,-2.2731 -0.67498,-3.9074 -2.30469,-5.5371 -1.62971,-1.6297 -3.26398,-2.3066 -5.53711,-2.3066 l -109.35351,0 z m 0,2.5625 109.35351,0 c 1.34567,0 2.79301,0.625 3.72461,1.5566 0.9316,0.9316 1.55469,2.379 1.55469,3.7246 l 0,15.3086 a 3.0929202,3.0929202 0 0 1 -3.0918,3.0938 l -113.72851,0 a 3.0929202,3.0929202 0 0 1 -3.09375,-3.0938 l 0,-15.3086 c 0,-1.3456 0.62503,-2.793 1.55664,-3.7246 0.9316,-0.9316 2.37893,-1.5566 3.72461,-1.5566 z m -1.69727,25.8672 113,0 c 1.939,0 3.5,1.561 3.5,3.5 l 0,8.625 c 0,1.939 -1.561,3.5 -3.5,3.5 l -113,0 c -1.939,0 -3.5,-1.561 -3.5,-3.5 l 0,-8.625 c 0,-1.939 1.561,-3.5 3.5,-3.5 z m -0.49023,17.875 113.72851,0 a 3.0929202,3.0929202 0 0 1 3.0918,3.0937 l 0,41.5547 c 0,1.3457 -0.6231,2.793 -1.55469,3.7246 -0.93161,0.9316 -2.37895,1.5547 -3.72461,1.5547 l -109.35351,0 c -1.34567,0 -2.79301,-0.6231 -3.72461,-1.5547 -0.93161,-0.9316 -1.55664,-2.3789 -1.55664,-3.7246 l 0,-41.5547 a 3.0929202,3.0929202 0 0 1 3.09375,-3.0937 z m 11.84179,32.4316 0,2.5625 11.31055,0 0,-2.5625 -11.31055,0 z m 26.24414,0 0,2.5625 20.0586,0 0,-2.5625 -20.0586,0 z"
         style="fill:#4a4a4a;fill-opacity:1" />
    </g>
    <path
       sodipodi:nodetypes="cssscsscscccsssccssscccsscccccscccccccscccccccccccccc"
       inkscape:connector-curvature="0"
       id="path4159"
       d="m -1445.4789,-359.75368 c 4.8102,4.8243 4.6653,6.2303 4.7551,49.2654 0.096,46.053 0.1317,45.7341 -5.5585,51.4533 -5.8626,5.8925 -3.957,5.7104 -59.6401,5.743 -50.6627,0.029 -53.0894,-0.1022 -57.7745,-3.2167 -3.1924,-2.1221 -5.7224,-5.5573 -7.1652,-9.702 -1.1197,-3.2168 -1.2783,-9.0505 -1.2049,-44.2906 0.096,-45.8857 -0.071,-44.4003 5.7787,-50.2681 6.0237,-6.0419 4.3114,-5.879 60.314,-5.8213 55.5622,0.057 53.4738,-0.1515 59.4589,5.8213 0.3662,0.3655 0.7158,0.6941 1.0365,1.0157 z m -25.6416,24.8085 c -0.6395,-0.7215 -1.4685,-1.294 -2.5265,-1.9142 -2.0943,-1.2278 -5.4817,-1.3675 -32.7419,-1.3675 -26.655,0 -30.6875,0.171 -32.6382,1.3153 -4.2211,2.4761 -4.7842,4.4484 -4.8847,16.8385 -0.053,6.5155 0.2542,12.0523 0.7773,13.4917 2.2397,6.1609 2.6996,6.2389 37.0954,6.1858 26.8491,-0.041 30.301,-0.1859 32.3921,-1.4065 4.2356,-2.4723 4.7162,-4.2389 4.7162,-17.5287 0,-9.9626 -0.2713,-13.4496 -2.1897,-15.6144 z m -7.787,90.7562 c 1.2748,0.5706 1.388,147.436804 0.1166,150.973604 -0.7371,2.0508 -1.8851,3.472 -7.0874,8.7122 -11.0045,11.0849 -10.7023,11.0531 -29.8654,1.4977 -14.5901,-7.2752 -17.5539,-9.2843 -18.5801,-12.6322 -0.29,-0.9463 -0.4977,-4.999304 -0.4665,-9.011704 l 0.051,-7.2928 6.9967,-7.2928 c 7.7482,-8.0789 8.0893,-8.7437 7.1521,-13.7 -0.4099,-2.1675 -0.8706,-2.7504 -7.2039,-9.116 -6.3126,-6.3447 -6.73,-6.8951 -6.3747,-8.0742 0.2239,-0.7436 2.9239,-3.7749 6.5561,-7.3709 3.3947,-3.3609 6.4447,-6.7536 6.7893,-7.5532 0.3447,-0.7996 0.5945,-2.6114 0.5572,-4.024 l -0.078,-2.5786 -6.9708,-7.2928 c -4.0978,-4.2745 -7.0218,-7.6884 -7.0744,-8.2564 -0.065,-0.7098 1.7008,-2.7774 6.6339,-7.7356 6.2958,-6.3278 6.7555,-6.9107 7.1651,-9.0769 0.9373,-4.9565 0.5838,-5.6086 -7.1651,-13.6871 l -6.9837,-7.3057 -0.039,-9.3374 c -0.018,-5.1386 0.063,-9.4405 0.1814,-9.5588 0.5101,-0.5111 36.8705,-0.4472 37.3804,0.065 0.3106,0.3123 0.5691,32.1547 0.5701,70.7661 l 0,70.193 3.7186,0.039 c 2.0423,0.019 3.9884,-0.2581 4.3405,-0.6121 0.3522,-0.3538 0.636,-31.9564 0.6349,-70.2321 0,-38.2756 0.1623,-69.757 0.3498,-69.9456 0.5495,-0.5522 7.687,-1.0108 8.6941,-0.56 z"
       style="fill:#5b5b5b;fill-opacity:1;stroke:#4a4a4a;stroke-width:3.00000048;stroke-miterlimit:4;stroke-dasharray:none;stroke-opacity:1" />
    <path
       sodipodi:nodetypes="sssssscsccsccsssssssccccsssssssssccccscsscszsccsssccsscccccssscsscsssccscssscssccccssccscsssssccccscccscssssscccssscsscccscccccscscccscczccccccsscsccscssccscssscsccccccssssscccscccsssccccccsssscccsssscsscsssscsssssssscsssssssssssssssccccssccssccsssssscssssccsssscccsssssscccsscccccsccccsccccccsssssssssc"
       inkscape:connector-curvature="0"
       id="path4189"
       d="m -1770.0664,-702.25 c -3.2037,0 -14.0483,3.70247 -18.0586,6.16602 -3.7664,2.31371 -4.0816,4.50747 -1.1777,8.19921 2.4843,3.15829 2.9515,3.18663 11.0722,0.65235 8.1836,-2.55392 12.8555,-5.44497 12.8555,-7.95508 0,-3.74556 -2.2027,-7.0625 -4.6914,-7.0625 z m 189.5078,8.25 c -5.6545,0 -7.9501,0.539 -12.9531,3.03906 -3.3443,1.67117 -7.9454,4.90251 -10.2246,7.18164 -3.8651,3.86511 -9.7198,12.52754 -8.8848,13.14453 0.2043,0.15097 2.3843,0.85412 4.8457,1.5625 5.1262,1.47531 11.5444,7.3089 12.5801,11.43555 0.3768,1.501 0.4313,2.98466 0.1211,3.29492 -0.3103,0.31026 -2.9509,-0.13361 -5.8692,-0.98632 -6.6745,-1.95025 -14.272,-2.8448 -17.4355,-2.05079 -1.4225,0.35702 -4.4904,3.34392 -7.3887,7.19336 -5.1419,6.8293 -5.1645,8.13713 -0.1367,8.16993 4.1138,0.0268 12.694,2.97278 17.4551,5.99218 6.2212,3.94539 11.699,12.72723 8.9492,14.34766 -0.4125,0.24308 -5.025,-0.64703 -10.25,-1.97656 -5.225,-1.32953 -13.55,-2.67749 -18.5,-2.9961 l -9,-0.57812 -3.3242,6.12304 c -1.828,3.36842 -4.4702,7.48893 -5.8731,9.15625 -1.403,1.66733 -2.3539,3.22805 -2.1132,3.46875 0.2407,0.2407 2.5907,1.58303 5.2226,2.98243 7.7179,4.10363 11.7009,7.61472 15.7676,13.90039 3.4052,5.26316 4.8669,9.5957 3.2383,9.5957 -0.32,0 -3.1325,-1.48675 -6.25,-3.30273 -10.5449,-6.14242 -24.3296,-9.87643 -30.6231,-8.29688 -2.6014,0.65291 -8.5449,7.78195 -8.5449,10.25 0,0.91408 1.3255,1.34961 4.1055,1.34961 11.1077,0 24.8554,6.25831 30.455,13.86523 5.6775,7.71272 7.6413,14.24944 7.4024,24.63477 -0.114,4.95 -0.1529,9.26972 -0.086,9.59961 l 0,0 c 0.1931,0.94841 15.4873,-0.24103 16.8262,-1.30859 2.4345,-1.94127 20.3306,-41.63787 30.7871,-68.29102 14.9154,-38.019 19.8659,-55.04415 19.9199,-68.5 0.037,-9.1658 -0.078,-9.67044 -3.3027,-14.34961 -4.0994,-5.94856 -7.8633,-7.65039 -16.918,-7.65039 z m -184.0625,6.24414 c -7.1514,3.7455 -15.4935,7.30648 -16.8516,7.75586 -1.3581,0.44938 -1.6156,1.07074 0.1407,3.57812 3.1368,4.47853 2.9262,8.50204 -0.834,15.92383 -1.9502,3.84933 -4.6795,12.56055 -4.6895,13.24805 -0.025,1.68431 3.0743,0.85757 15.3867,-1.93555 5.8613,-1.32959 14.0408,-3.98013 18.1758,-5.89062 7.9334,-3.66545 18.293,-9.96364 18.293,-11.33594 0,-0.83705 -10.5644,-7.95454 -19.0078,-11.02734 -3.7665,-1.3707 -5.3033,-2.6611 -7.3711,-6.18946 -1.4367,-2.45157 -2.8958,-4.30833 -3.2422,-4.12695 z m -132.5898,3.1875 c -0.8774,0.003 -1.4335,1.71246 -1.9336,5.48242 -0.3617,2.72693 -1.3177,6.22358 -2.125,7.77149 -2.9641,5.68279 -1.4401,10.58248 6.0859,19.56445 1.2672,1.51231 2.8742,4.32481 3.5703,6.25 1.7647,4.88002 4.4368,4.65493 5.9824,-0.50391 0.9514,-3.1752 0.9242,-5.46964 -0.1347,-11.08203 -1.5994,-8.47645 -0.9866,-9.29515 6.2988,-8.41406 6.0064,0.72639 6.8597,0.20953 5.6074,-3.38281 -1.5146,-4.34486 -5.6831,-7.58349 -13.5683,-10.54297 -3.9474,-1.4815 -7.7108,-3.33683 -8.3633,-4.12305 -0.5567,-0.6707 -1.0211,-1.02084 -1.4199,-1.01953 z M -1729.8828,-662 c -0.5092,0 -3.2253,1.81794 -6.0352,4.03906 -10.1988,8.06173 -28.0075,14.90019 -43.08,16.54297 -8.5598,0.93294 -9.752,1.69797 -9.752,6.26172 0,4.99969 1.5235,6.66517 7.3848,8.07617 12.6445,3.04395 21.9487,11.40555 25.9629,23.33008 0.7138,2.12031 2.8802,2.20369 8.7246,0.33398 2.4354,-0.77915 5.6298,-1.6794 7.0996,-2 1.9906,-0.43422 2.9835,-1.54021 3.8886,-4.33398 3.5305,-10.89679 11.2008,-21.77565 18.5606,-26.32422 1.8583,-1.1485 3.3789,-2.75114 3.3789,-3.56055 0,-3.12077 -13.8817,-22.36523 -16.1328,-22.36523 z m -145.8281,6.28711 c -0.9194,-0.0417 -1.0391,0.70354 -1.0391,3.08398 0,2.19757 -1.4873,6.23192 -3.9863,10.81641 -6.0518,11.10215 -5.5732,14.05729 3.9023,24.11719 l 3.584,3.80469 1.5,-2.30469 c 0.825,-1.26784 3.1319,-4.10469 5.127,-6.30469 5.4344,-5.99228 7.873,-11.22379 7.873,-16.89062 0,-4.44547 -0.3888,-5.28904 -4.0332,-8.75586 -4.0354,-3.83878 -7.4933,-5.99208 -11.7168,-7.29493 -0.5094,-0.15712 -0.9045,-0.25759 -1.2109,-0.27148 z m 184.9218,17.85351 c -10.8708,0.4787 -24.1574,4.90299 -30.0234,11.58399 -4.583,5.21976 -7.1817,11.16224 -7.3164,16.73633 -0.108,4.46856 0.1052,5.01792 1.8789,4.85547 3.6807,-0.33709 11.9507,1.87375 16.8477,4.5039 6.204,3.33217 12.7531,10.63592 17.8281,19.88281 2.2024,4.0129 4.1533,7.29688 4.334,7.29688 0.1807,0 2.3616,-3.7125 4.8457,-8.25 7.0902,-12.95148 15.2458,-22.03647 28.955,-32.25 l 2.6856,-2 -1.9102,-4.16211 c -4.1412,-9.02575 -15.3284,-16.79118 -25.6679,-17.81836 -4.7555,-0.41655 -8.0443,-0.68806 -12.4571,-0.37891 z m -133.7246,3.8418 c -0.407,-0.0158 -1.0227,0.17284 -1.8418,0.34766 -1.5917,0.33977 -7.351,1.10188 -12.7968,1.69531 -10.1258,1.10343 -13.8512,2.35642 -16.7403,5.62305 -1.4218,1.60765 -9.9656,17.62034 -12.0586,22.60156 -2.2029,5.24269 9.5559,-1.28015 15.5625,-8.63281 5.2538,-6.43107 7.9271,-6.15818 8.6563,0.88281 0.635,6.131 1.4391,7.5 4.4062,7.5 5.4166,0 8.9774,-5.18739 12.6973,-18.5 2.6788,-9.58684 3.3362,-11.4701 2.1152,-11.51758 z m -89.9355,6.53711 c -0.1089,0.0149 -0.1903,0.0515 -0.2442,0.11133 -1.355,1.50366 -3.0566,10.04284 -3.0566,15.34375 0,11.5721 4.0626,15.23857 20.5117,18.50781 6.4606,1.28401 12.8263,3.17945 14.6934,4.375 1.812,1.16024 3.5643,2.116 3.8945,2.125 1.3261,0.0372 1.8575,-17.80478 0.6328,-21.2539 -2.2542,-6.34867 -9.3648,-10.59961 -21.2324,-12.69336 -3.8776,-0.68411 -7.5317,-2.15718 -10.3301,-4.16602 -2.084,-1.49593 -4.1073,-2.45388 -4.8691,-2.34961 z m 225.6152,0.7207 c 0.3432,0.002 0.788,0.0875 1.334,0.26758 1.2375,0.40806 4.95,1.0236 8.25,1.36719 l 6,0.625 -2.4727,1.75 c -3.3837,2.39494 -9.107,2.25511 -11.8378,-0.28906 -2.3413,-2.18088 -2.7606,-3.73116 -1.2735,-3.72071 z m -109.9765,1.66211 c -3.3178,0.0238 -6.5844,0.47145 -9.67,1.39454 -5.8916,1.76255 -6.6471,2.7503 -4.8047,6.2832 2.401,4.60416 1.9682,9.06758 -1.1308,11.67578 -1.466,1.23387 -4.1599,3.5232 -5.9863,5.08594 -3.7855,3.23924 -5.7526,8.98631 -4.8047,14.03906 0.612,3.26182 0.7889,3.369 6.5644,3.97266 3.2641,0.34116 7.6132,1.50692 9.6641,2.58984 4.8895,2.58162 5.4231,2.99457 6.1133,-0.19336 0.6902,-3.18793 2.2941,-5.08819 2.6386,-6.125 7.2358,-14.67338 12.8339,-17.57725 25.6368,-19.16406 2.7053,-0.31502 6.1068,4.44425 12.957,5.33398 -1.5269,-14.27602 -26.3197,-24.74523 -37.1777,-24.89258 z m -128.1778,14.25391 c -3.5924,-0.024 -8.632,4.04053 -11.7422,11.13672 -6.4128,14.6313 -9.3487,19.88485 -12.5332,22.42578 -2.4012,1.91598 -3.0479,2.95797 -2.1953,3.54102 0.6646,0.45444 3.1834,0.58187 5.5977,0.2832 2.4142,-0.29867 7.0267,-0.54297 10.25,-0.54297 l 5.8613,0 0,-7.92773 c 0,-10.5859 1.6122,-12.42729 8.6543,-9.88086 1.8127,0.6559 3.5393,0.94702 3.8379,0.64843 0.2986,-0.2986 -0.3554,-2.52201 -1.4531,-4.9414 -1.0977,-2.4194 -2.0056,-6.29513 -2.0176,-8.61328 -0.022,-4.18261 -1.8018,-6.11249 -4.2598,-6.12891 z m 76.9746,7.99414 c -0.489,0.0295 -1.0637,0.53992 -1.8281,1.46094 -0.7355,0.88621 -4.5587,4.24318 -8.4941,7.45898 -8.0737,6.59722 -11.4141,12.24524 -11.4141,19.29688 0,5.67065 1.7916,9.82675 7.5215,17.44922 4.8905,6.50578 6.1646,7.29762 7.1347,4.43359 3.4873,-10.29494 10.7525,-20.00121 17.8223,-23.80859 1.9366,-1.04292 3.5215,-2.40845 3.5215,-3.03516 0,-0.6267 -2.4375,-4.198 -5.416,-7.93555 -3.0119,-3.77943 -5.9534,-8.7204 -6.6289,-11.13281 -0.8258,-2.94962 -1.4037,-4.2367 -2.2188,-4.1875 z m 82.0528,5.34961 -6.6446,0.043 c -11.0003,0.0708 -17.9861,5.74573 -18.9101,15.36133 l -0.4629,4.81836 5.6914,3.25586 c 3.1296,1.79058 5.9344,3.89602 6.2344,4.67773 0.3279,0.85454 -1.8956,3.96191 -5.5762,7.79492 -3.3669,3.50631 -6.1211,7.20025 -6.1211,8.20899 0,1.00875 1.3907,6.00729 3.0898,11.10742 2.4759,7.43193 3.6175,9.54093 5.75,10.61914 3.7106,1.87616 11.2539,3.52941 20.6602,4.52734 4.4,0.46681 13.625,0.7889 20.5,0.7168 l 12.5,-0.13086 0.2539,-3.5 c 0.5886,-8.13409 3.422,-15.91652 7.4668,-20.51172 4.7772,-5.42721 8.398,-7.49543 15.7793,-9.00976 l 5.5,-1.12891 0.3066,-5.88281 c 0.3879,-7.45501 -1.7079,-13.09329 -6.8261,-18.36719 -5.0586,-5.21257 -10.225,-7.78065 -18.2246,-9.05859 -8.0769,-1.29028 -14.0547,-0.24663 -20.42,3.56445 -8.2499,4.93937 -7.8774,4.97331 -14.5195,-1.35938 z m -155.8809,14.75 c -0.3298,0.0142 -0.5504,0.0582 -0.6309,0.13867 -0.3217,0.3217 0.7858,3.62815 2.461,7.34766 2.2919,5.08905 3.1913,8.8365 3.6328,15.14062 0.7545,10.77319 2.7498,14.92814 8.5898,17.87305 5.1759,2.61007 8.0007,2.7446 13.5391,0.64648 2.2,-0.83343 6.6029,-2.43591 9.7852,-3.56054 6.697,-2.36667 6.4868,-3.90032 -0.7891,-5.73242 -4.9535,-1.2473 -10.0252,-5.24306 -12.8945,-10.16016 l -1.8985,-3.25391 3.625,0.58985 c 1.9933,0.32347 7.9121,3.36507 13.1524,6.75976 12.4208,8.04628 14.57,7.33711 10.8515,-3.57617 -3.9523,-11.59934 -18.5498,-20.3647 -34.0332,-20.4375 -2.8604,-0.0135 -7.5033,-0.51934 -10.3183,-1.12305 -2.1113,-0.45281 -4.0828,-0.69487 -5.0723,-0.65234 z m 102.4844,8.85547 c -0.6443,0.0122 -1.3299,0.0381 -2.0664,0.0742 -6.1328,0.30068 -7.8007,0.80415 -11.5,3.47265 -4.622,3.33397 -10.8123,12.46954 -10.8223,15.96289 0,1.89279 0.7071,2.17231 6.7461,2.65235 3.7125,0.2951 10.125,1.68553 14.25,3.08984 4.125,1.40432 9.591,2.57316 12.1465,2.59766 4.093,0.0392 5.0161,-0.37647 7.75,-3.49024 1.707,-1.94413 3.1035,-3.92868 3.1035,-4.41015 0,-0.48147 1.8459,-3.21078 4.1016,-6.06446 2.2557,-2.85368 3.7182,-5.55149 3.25,-5.99609 -0.4682,-0.44459 -2.4266,-1.27196 -4.3516,-1.83984 -1.925,-0.56787 -6.65,-2.22408 -10.5,-3.67969 -5.0312,-1.90217 -7.5972,-2.45449 -12.1074,-2.36914 z m 155.584,6.41211 c -10.909,-0.0216 -16.9603,2.71058 -21.4766,9.70117 -3.4977,5.41397 -4.8493,6.20739 -7.8223,4.58789 -3.4704,-1.89039 -14.9191,-1.53356 -18.1211,0.56445 -4.1273,2.7043 -7.5348,10.92947 -7.5468,18.21289 -0.01,3.34584 0.3277,6.43964 0.7402,6.87696 0.9973,1.05728 39.5364,-0.14921 60.1914,-1.88477 18.4139,-1.54726 18.486,-1.58233 19.6484,-9.33398 1.5309,-10.20853 -3.817,-21.30685 -12.6367,-26.22461 -3.759,-2.09598 -5.7817,-2.4857 -12.9765,-2.5 z m -203.2286,26.89062 c -11.6739,-0.17432 -19.748,2.44694 -19.748,6.8711 0,1.22869 1.167,6.28238 2.5938,11.22851 7.6169,26.40497 8.586,30.87294 8.0214,36.99219 -0.3045,3.3 -2.3396,14.1 -4.5234,24 -5.2535,23.81555 -7.4804,41.99194 -6.8613,56 0.4087,9.24599 1.0656,12.69985 4.1269,21.65625 2.0031,5.86052 3.6426,11.9163 3.6426,13.45898 0,1.54268 -1.2143,6.23558 -2.6992,10.42774 l -2.7012,7.62109 1.8672,4.91797 c 2.1706,5.71592 7.435,10.98505 12.4902,12.50195 1.949,0.58486 7.7055,1.31538 12.793,1.625 9.7455,0.59309 11.6957,1.85466 6.5156,4.21485 -6.2743,2.85877 -28.0879,-0.59201 -30.7265,-4.86133 -1.4597,-2.36193 -2.2211,-0.80008 -1.795,3.6875 0.252,2.6532 -0.2539,7.4625 -1.1464,10.89453 -0.8788,3.37939 -1.5977,9.35105 -1.5977,13.27149 l 0,7.1289 8.4629,5.51563 c 14.0016,9.12667 37.651,19.80364 57.0371,25.74804 14.8016,4.53866 36.0321,8.27344 54.5,9.58789 16.9494,1.20633 45.3313,1.25065 55.0254,0.0859 4.6606,-0.55994 16.1246,-3.00797 25.4746,-5.43945 15.5102,-4.03345 26.0249,-5.71311 50.5,-8.06836 8.89,-0.8555 22.2049,-4.02886 26.8496,-6.39844 11.4142,-5.82308 15.5057,-19.80662 9.7402,-33.29492 -0.8741,-2.04484 -1.5898,-5.75734 -1.5898,-8.25 0,-5.6985 -0.661,-5.72961 -11,-0.53125 -6.4039,3.21981 -8.9846,3.98629 -13.2285,3.92969 -8.6698,-0.11558 -9.8107,-1.23636 -3.336,-3.27735 5.1955,-1.63772 26.5768,-11.18287 26.5528,-11.85351 -0.01,-0.16416 -0.681,-2.50712 -1.5,-5.20703 -3.2444,-10.69469 -1.8336,-26.59208 5.1523,-58.0918 4.9307,-22.23291 5.4378,-33.24208 2.0782,-45.04883 -3.5022,-12.3076 -3.936,-18.24748 -2.5411,-34.73437 1.8494,-21.85892 1.9119,-21.15909 -1.9277,-21.5293 -5.4367,-0.5242 -3.6892,-4.67951 2.25,-5.34961 l 3,-0.33789 0.2832,-11.25 c 0.1556,-6.1875 0.043,-11.25 -0.25,-11.25 -0.2928,0 -4.4704,0.67428 -9.2832,1.49805 -21.8718,3.74366 -36.6695,4.64569 -85.3496,5.20507 -68.5769,0.78804 -80.1465,-0.32351 -119.9043,-11.51367 -27.724,-7.80316 -36.245,-9.76418 -48.6465,-11.20117 -3.0224,-0.35021 -5.9076,-0.53985 -8.6016,-0.58008 z m -28.8046,6.59965 c -1.4345,0.0775 -3.3386,2.17398 -6.4434,6.88672 -5.739,8.71132 -6.966,9.79318 -9.1055,8.01758 -1.1828,-0.98183 -1.4791,-2.46397 -1.123,-5.62305 0.4383,-3.8891 0.2802,-4.28906 -1.6973,-4.28906 -3.088,0 -8.5657,6.04419 -9.6289,10.62695 -0.4941,2.12969 -0.9089,6.8547 -0.9219,10.49805 -0.013,3.64335 -0.6986,8.53713 -1.5234,10.875 l -1.5,4.25 3.25,-0.69531 c 1.7873,-0.38246 7.3544,-1.06746 12.3711,-1.52149 5.0167,-0.45403 10.0602,-1.3277 11.207,-1.9414 2.9572,-1.58265 4.156,-7.03154 4.166,-18.87305 0,-6.59069 0.5131,-11.49933 1.42,-13.66992 0.7783,-1.86247 1.1538,-3.64694 0.8339,-3.9668 -0.4009,-0.40092 -0.8265,-0.60005 -1.3046,-0.57422 z m 41.0644,14.08204 c 1.2097,-0.004 2.7882,0.0722 4.7422,0.22657 13.0271,1.02934 24.9273,3.53789 39.666,8.36132 22.0165,7.20519 30.2742,8.35326 64.834,9.01563 16.3625,0.3136 29.75,0.91516 29.75,1.33789 0,0.80823 -5.5361,2.22334 -15.3887,3.93164 -8.7654,1.51977 -28.8879,2.02994 -39.1113,0.99219 -12.3937,-1.25806 -25.7174,-4.21016 -40.5,-8.97461 -6.875,-2.21582 -18.125,-5.37658 -25,-7.02344 -15.6811,-3.7563 -22,-5.82026 -22,-7.18555 0,-0.44872 0.9917,-0.67533 3.0078,-0.68164 z"
       style="fill:#5b5b5b;stroke:#4a4a4a;stroke-width:3;stroke-linecap:round;stroke-miterlimit:4;stroke-dasharray:none;stroke-opacity:1;fill-opacity:1" />
    <path
       sodipodi:nodetypes="ccscccssscsccccssssscscsscssssssssscsssssssc"
       inkscape:connector-curvature="0"
       id="path4218"
       d="m -1384.6381,-247.54337 0.4285,-59.79743 50.1634,-0.37247 c 33.4777,-0.24853 50.5139,0.19226 51.2174,1.32545 0.5797,0.93378 1.2523,6.59081 1.4948,12.57135 l 0.4405,10.87342 5.792,0.94111 c 8.3567,1.35781 13.3904,5.22648 17.3227,13.31352 9.2362,18.99479 -1.4085,45.11324 -18.386,45.11324 -2.3651,0 -4.3303,0.91492 -4.3672,2.03314 -0.038,1.11824 -0.2207,8.98651 -0.4085,17.48506 l -0.3413,15.45191 -51.8925,0.42957 -51.8925,0.42939 z m 15.1325,-0.45185 c 0,-35.76352 -0.3364,-41.45389 -2.4506,-41.45389 -2.1039,0 -2.5125,5.94492 -2.887,42.0074 -0.4094,39.41668 -0.2583,41.97324 2.4507,41.4539 2.6699,-0.51187 2.8869,-3.66845 2.8869,-42.00741 z m 97.3001,12.98628 c 12.4101,-6.61228 9.4306,-35.52736 -3.8193,-37.06311 l -4.4401,-0.51463 -0.2042,12.30687 c -0.4181,25.19768 -0.239,26.94553 2.7622,26.94553 1.407,0 3.9725,-0.75356 5.7014,-1.67466 z m -75.2441,-85.9582 c 0,-0.78494 1.1028,-2.33841 2.4506,-3.45208 1.3478,-1.11367 2.4507,-4.44674 2.4507,-7.40686 0,-4.55277 -1.5162,-6.69473 -9.8415,-13.90376 -13.8778,-12.01685 -15.0086,-20.08376 -3.9884,-28.45186 6.4972,-4.93351 8.9254,-4.34052 5.0107,1.22365 -4.8761,6.9309 -3.3507,10.80625 8.8192,22.40475 13.9809,13.32444 14.595,16.68287 4.6072,25.19411 -6.8412,5.82973 -9.5085,7.06186 -9.5085,4.39205 z m 29.4598,0.24937 c 0.029,-0.69389 1.1314,-2.68246 2.4507,-4.41892 4.7914,-6.30666 3.0135,-10.7934 -8.4932,-21.43422 -9.1638,-8.47432 -10.8917,-10.91882 -10.8917,-15.40815 0,-4.16484 1.3744,-6.51878 6.2626,-10.72559 7.7425,-6.663 9.8286,-6.85044 6.5773,-0.59094 -3.8651,7.44084 -3.1111,12.27031 2.7207,17.42796 19.0549,16.85288 20.3963,19.41318 14.2476,27.19525 -3.4669,4.38782 -12.9689,10.25892 -12.874,7.95461 z"
       style="fill:#5b5b5b;fill-opacity:1;stroke:#4a4a4a;stroke-width:2.99999976;stroke-miterlimit:4;stroke-dasharray:none;stroke-opacity:1" />
  </g>
  <g
     id="g4459"
     clip-path="url(#clipPath4478)"
     transform="matrix(0.74983227,0,0,0.74962915,-1.224121e-6,-7.77832e-6)">
    <g
       transform="translate(911.17786,-170.23215)"
       id="g4262">
      <use
         x="0"
         y="0"
         xlink:href="#use4225"
         id="use4227"
         transform="translate(-990.97239,602.14386)"
         width="100%"
         height="100%" />
      <use
         height="100%"
         width="100%"
         transform="translate(-990.97239,887.17097)"
         id="use4235"
         xlink:href="#use4225"
         y="0"
         x="0" />
      <use
         x="0"
         y="0"
         xlink:href="#use4225"
         id="use4245"
         transform="translate(-990.97239,1172.1981)"
         width="100%"
         height="100%" />
    </g>
    <g
       transform="translate(592.21383,-170.23215)"
       id="g4267">
      <use
         height="100%"
         width="100%"
         transform="translate(-990.97239,602.14386)"
         id="use4269"
         xlink:href="#use4225"
         y="0"
         x="0" />
      <use
         x="0"
         y="0"
         xlink:href="#use4225"
         id="use4271"
         transform="translate(-990.97239,887.17097)"
         width="100%"
         height="100%" />
      <use
         height="100%"
         width="100%"
         transform="translate(-990.97239,1172.1981)"
         id="use4273"
         xlink:href="#use4225"
         y="0"
         x="0" />
    </g>
    <g
       id="g4276"
       transform="translate(273.2498,-170.23215)">
      <use
         x="0"
         y="0"
         xlink:href="#use4225"
         id="use4278"
         transform="translate(-990.97239,602.14386)"
         width="100%"
         height="100%" />
      <use
         height="100%"
         width="100%"
         transform="translate(-990.97239,887.17097)"
         id="use4280"
         xlink:href="#use4225"
         y="0"
         x="0" />
      <use
         x="0"
         y="0"
         xlink:href="#use4225"
         id="use4282"
         transform="translate(-990.97239,1172.1981)"
         width="100%"
         height="100%" />
    </g>
  </g>
  <use
     x="0"
     y="0"
     xlink:href="#g4220"
     id="use4225"
     transform="matrix(0.42822971,-0.11474381,0.11470162,0.42807228,253.41968,178.76069)"
     width="100%"
     height="100%" />
  <g
     transform="matrix(0.74983227,0,0,0.74962915,1866.7619,-1787.566)"
     clip-path="none"
     id="g4520">
    <g
       id="g4522"
       transform="translate(911.17786,-170.23215)">
      <use
         height="100%"
         width="100%"
         transform="translate(-990.97239,602.14386)"
         id="use4524"
         xlink:href="#use4225"
         y="0"
         x="0" />
      <use
         x="0"
         y="0"
         xlink:href="#use4225"
         id="use4526"
         transform="translate(-990.97239,887.17097)"
         width="100%"
         height="100%" />
      <use
         height="100%"
         width="100%"
         transform="translate(-990.97239,1172.1981)"
         id="use4528"
         xlink:href="#use4225"
         y="0"
         x="0" />
    </g>
    <g
       id="g4530"
       transform="translate(592.21383,-170.23215)">
      <use
         x="0"
         y="0"
         xlink:href="#use4225"
         id="use4532"
         transform="translate(-990.97239,602.14386)"
         width="100%"
         height="100%" />
      <use
         height="100%"
         width="100%"
         transform="translate(-990.97239,887.17097)"
         id="use4534"
         xlink:href="#use4225"
         y="0"
         x="0" />
      <use
         x="0"
         y="0"
         xlink:href="#use4225"
         id="use4536"
         transform="translate(-990.97239,1172.1981)"
         width="100%"
         height="100%" />
    </g>
    <g
       transform="translate(273.2498,-170.23215)"
       id="g4538">
      <use
         height="100%"
         width="100%"
         transform="translate(-990.97239,602.14386)"
         id="use4540"
         xlink:href="#use4225"
         y="0"
         x="0" />
      <use
         x="0"
         y="0"
         xlink:href="#use4225"
         id="use4542"
         transform="translate(-990.97239,887.17097)"
         width="100%"
         height="100%" />
      <use
         height="100%"
         width="100%"
         transform="translate(-990.97239,1172.1981)"
         id="use4544"
         xlink:href="#use4225"
         y="0"
         x="0" />
    </g>
  </g>
  <rect
     style="opacity:0.50499998;fill:#ff0000;fill-opacity:1;stroke:none;stroke-width:3;stroke-linecap:round;stroke-linejoin:miter;stroke-miterlimit:4;stroke-dasharray:none;stroke-dashoffset:0;stroke-opacity:1"
     id="rect4546"
     width="239.16612"
     height="213.67363"
     x="1866.7618"
     y="-1787.566" />
</svg>
