<?xml version="1.0" encoding="UTF-8" standalone="no"?>
<!-- Created with Inkscape (http://www.inkscape.org/) -->

<svg
   xmlns:dc="http://purl.org/dc/elements/1.1/"
   xmlns:cc="http://creativecommons.org/ns#"
   xmlns:rdf="http://www.w3.org/1999/02/22-rdf-syntax-ns#"
   xmlns:svg="http://www.w3.org/2000/svg"
   xmlns="http://www.w3.org/2000/svg"
   xmlns:xlink="http://www.w3.org/1999/xlink"
   xmlns:sodipodi="http://sodipodi.sourceforge.net/DTD/sodipodi-0.dtd"
   xmlns:inkscape="http://www.inkscape.org/namespaces/inkscape"
   width="200"
   height="200"
   id="svg4396"
   version="1.1"
   inkscape:version="0.48.2 r9819"
   sodipodi:docname="bg-pattern.svg"
   inkscape:export-filename="/Users/pmn/code/personal/keytag.fail/resources/bg-pattern.png"
   inkscape:export-xdpi="5.3856511"
   inkscape:export-ydpi="5.3856511">
  <defs
     id="defs4398">
    <clipPath
       clipPathUnits="userSpaceOnUse"
       id="clipPath3021">
      <rect
         style="opacity:0.5;fill:#ffc441;fill-opacity:1;stroke:none"
         id="rect3023"
         width="768.22485"
         height="768.22485"
         x="762.63226"
         y="945.70203" />
    </clipPath>
  </defs>
  <sodipodi:namedview
     id="base"
     pagecolor="#ffffff"
     bordercolor="#666666"
     borderopacity="1.0"
     inkscape:pageopacity="0.0"
     inkscape:pageshadow="2"
     inkscape:zoom="1.28"
     inkscape:cx="240.7203"
     inkscape:cy="92.09505"
     inkscape:document-units="px"
     inkscape:current-layer="layer1"
     showgrid="false"
     fit-margin-top="0"
     fit-margin-left="0"
     fit-margin-right="0"
     fit-margin-bottom="0"
     inkscape:snap-bbox="false"
     inkscape:object-paths="true"
     inkscape:snap-smooth-nodes="true"
     inkscape:snap-intersection-paths="true"
     inkscape:object-nodes="true"
     inkscape:window-width="1288"
     inkscape:window-height="757"
     inkscape:window-x="1725"
     inkscape:window-y="537"
     inkscape:window-maximized="0" />
  <metadata
     id="metadata4401">
    <rdf:RDF>
      <cc:Work
         rdf:about="">
        <dc:format>image/svg+xml</dc:format>
        <dc:type
           rdf:resource="http://purl.org/dc/dcmitype/StillImage" />
        <dc:title />
      </cc:Work>
    </rdf:RDF>
  </metadata>
  <g
     inkscape:label="Layer 1"
     inkscape:groupmode="layer"
     id="layer1"
     transform="translate(-762.94556,-1513.9033)">
    <g
       id="g2997"
       clip-path="url(#clipPath3021)"
       transform="matrix(0.26034044,0,0,0.26034044,564.40154,1267.6988)">
      <g
         transform="translate(-7.934903e-6,-1.4696948e-6)"
         inkscape:tile-y0="107.47762"
         inkscape:tile-x0="-75.592303"
         inkscape:tile-h="908.22457"
         inkscape:tile-w="908.22462"
         inkscape:tile-cy="561.5899"
         inkscape:tile-cx="378.52"
         id="g4444"
         style="opacity:1">
        <g
           id="g4435"
           inkscape:transform-center-x="80"
           inkscape:transform-center-y="-131.42857">
          <path
             inkscape:transform-center-y="212.68374"
             inkscape:transform-center-x="-214.22356"
             inkscape:connector-curvature="0"
             id="path4419"
             d="m 399.20965,492.84503 c 11.589,0.0125 13.1012,-1.84883 64.84375,-53.375 55.37083,-55.13929 55.03125,-54.7137 55.03125,-68.4375 0,-14.14 2.07951,-11.6235 -65.03125,-78.8125 -61.05995,-61.13115 -64.14455,-63.89936 -73.53125,-65.8125 -6.396,-1.30361 -13.5684,-0.23303 -20.2812,3 -5.2099,2.50913 -12.4008,9.31736 -54.5938,51.6875 -54.939,55.16972 -53.3577,53.18655 -53.3438,67.28125 0.0149,14.5133 -1.8545,12.25282 65.75,79.71875 67.0729,66.93529 64.3037,64.66735 78.6876,64.71875 0.8802,0.003 1.6961,0.0304 2.4687,0.0312 z m -1.1563,-60.6875 c -1.6368,0.0946 -3.3237,-0.2183 -5.3437,-0.75 -3.9986,-1.05252 -8.2511,-4.96984 -41.125,-37.84375 -32.1441,-32.14413 -36.8019,-37.21216 -37.7813,-40.9375 -2.1194,-8.06106 -0.432,-11.10661 14.3126,-26.09375 7.7536,-7.8812 14.767,-14.15396 17.125,-15.25 10.0928,-4.69117 10.7409,-4.23033 52.1562,37.3125 32.32825,32.42785 36.31778,36.7638 37.375,40.75 2.1414,8.07409 0.60157,10.77345 -15.3438,26.71875 -11.9532,11.95331 -16.4643,15.80985 -21.375,16.09375 z M 497.5534,313.87628 c 2.22193,0.85264 178.57092,-175.22335 181.28125,-181 1.57158,-3.34958 1.89255,-6.43907 1.90625,-19 0.029,-26.57039 0.35528,-26.16784 -34.21875,-37.8125 -26.32363,-8.8659 -32.30822,-10.0293 -37.5625,-7.25 -1.48519,0.7856 -6.59845,5.3981 -11.375,10.25 l -8.6875,8.8125 -0.3125,17.1875 c -0.34946,19.03702 -0.73568,20.24606 -7.8125,25.0625 -3.09485,2.10633 -4.34994,2.25 -19.625,2.25 -15.22516,0 -16.38864,0.15697 -17.375,2 -0.62208,1.16236 -1.0031,8.05526 -0.9375,16.75 0.0613,8.12614 -0.33114,15.875 -0.875,17.25 -0.54385,1.375 -2.4163,3.85 -4.15625,5.5 l -3.1875,3 -17.15625,0.34375 c -10.07042,0.18695 -17.69269,0.75686 -18.4375,1.375 -0.93081,0.77251 -1.28125,5.3832 -1.28125,17.28125 0,15.18457 -0.14489,16.4382 -2.25,19.53125 -4.81669,7.07718 -6.02522,7.43327 -25.0625,7.78125 l -17.1875,0.34375 -11.25,11.15625 c -6.1875,6.14332 -11.25044,11.40353 -11.25,11.6875 0.002,1.2284 43.92657,45 45.15625,45 0.74928,0 39.26602,-37.89345 85.59375,-84.21875 l 84.21875,-84.21875 4.53125,4.4375 c 2.48598,2.43981 4.5,5.11953 4.5,5.96875 0,0.84922 -37.575,39.10872 -83.5,85.03125 -45.925,45.92253 -83.5,83.89119 -83.5,84.34375 0,1.32508 8.05717,10.48267 9.8125,11.15625 z M 635.1784,73.97003 c -8.09088,-2.61849 -14.64538,-4.62356 -17.40625,-5.28125 2.9148,0.65255 9.62984,2.73184 17.40625,5.28125 z m -28.65625,-1.625 c 1.62222,-1.27409 2.95398,-2.18045 3.71875,-2.5 0.40682,-0.16998 0.87516,-0.31992 1.34375,-0.46875 -1.55599,0.62077 -3.19643,1.57881 -5.0625,2.96875 z m 11.0625,-3.6875 c -0.53366,-0.12397 -0.93373,-0.18215 -1.125,-0.1875 0.22694,0.006 0.62931,0.0816 1.125,0.1875 z"
             style="fill:#4a4a4a;fill-opacity:1" />
        </g>
        <use
           x="0"
           y="0"
           xlink:href="#g4435"
           inkscape:transform-center-x="-131.42857"
           inkscape:transform-center-y="-79.999999"
           id="use4438"
           transform="matrix(0,1,-1,0,940.10993,183.06992)"
           width="744.09448"
           height="1052.3622" />
        <use
           x="0"
           y="0"
           xlink:href="#g4435"
           inkscape:transform-center-x="-80"
           inkscape:transform-center-y="131.42852"
           id="use4440"
           transform="matrix(-1,0,0,-1,757.04001,1123.1798)"
           width="744.09448"
           height="1052.3622" />
        <use
           x="0"
           y="0"
           xlink:href="#g4435"
           inkscape:transform-center-x="131.42857"
           inkscape:transform-center-y="80.000001"
           id="use4442"
           transform="matrix(0,-1,1,0,-183.06992,940.10993)"
           width="744.09448"
           height="1052.3622" />
      </g>
      <use
         height="1052.3622"
         width="744.09448"
         id="use4453"
         transform="translate(0,768.22457)"
         xlink:href="#g4444"
         inkscape:tiled-clone-of="#g4444"
         y="0"
         x="0" />
      <use
         height="1052.3622"
         width="744.09448"
         id="use4455"
         transform="translate(0,1536.4491)"
         xlink:href="#g4444"
         inkscape:tiled-clone-of="#g4444"
         y="0"
         x="0" />
      <use
         height="1052.3622"
         width="744.09448"
         id="use4457"
         transform="translate(768.22462,0)"
         xlink:href="#g4444"
         inkscape:tiled-clone-of="#g4444"
         y="0"
         x="0" />
      <use
         height="1052.3622"
         width="744.09448"
         id="use4459"
         transform="translate(768.22462,768.22457)"
         xlink:href="#g4444"
         inkscape:tiled-clone-of="#g4444"
         y="0"
         x="0" />
      <use
         height="1052.3622"
         width="744.09448"
         id="use4461"
         transform="translate(768.22462,1536.4491)"
         xlink:href="#g4444"
         inkscape:tiled-clone-of="#g4444"
         y="0"
         x="0" />
      <use
         height="1052.3622"
         width="744.09448"
         id="use4463"
         transform="translate(1536.4492,0)"
         xlink:href="#g4444"
         inkscape:tiled-clone-of="#g4444"
         y="0"
         x="0" />
      <use
         height="1052.3622"
         width="744.09448"
         id="use4465"
         transform="translate(1536.4492,768.22457)"
         xlink:href="#g4444"
         inkscape:tiled-clone-of="#g4444"
         y="0"
         x="0" />
      <use
         height="1052.3622"
         width="744.09448"
         id="use4467"
         transform="translate(1536.4492,1536.4491)"
         xlink:href="#g4444"
         inkscape:tiled-clone-of="#g4444"
         y="0"
         x="0" />
    </g>
  </g>
</svg>
