<?xml version="1.0" encoding="UTF-8" standalone="no"?>
<!-- Created with Inkscape (http://www.inkscape.org/) -->

<svg
   xmlns:dc="http://purl.org/dc/elements/1.1/"
   xmlns:cc="http://creativecommons.org/ns#"
   xmlns:rdf="http://www.w3.org/1999/02/22-rdf-syntax-ns#"
   xmlns:svg="http://www.w3.org/2000/svg"
   xmlns="http://www.w3.org/2000/svg"
   xmlns:xlink="http://www.w3.org/1999/xlink"
   xmlns:sodipodi="http://sodipodi.sourceforge.net/DTD/sodipodi-0.dtd"
   xmlns:inkscape="http://www.inkscape.org/namespaces/inkscape"
   width="100"
   height="100"
   id="svg4396"
   version="1.1"
   inkscape:version="0.91 r13725"
   sodipodi:docname="bg-pattern-tag.svg"
   inkscape:export-filename="/Users/pmn/code/personal/keytag.fail/resources/bg-pattern.png"
   inkscape:export-xdpi="5.3856511"
   inkscape:export-ydpi="5.3856511">
  <defs
     id="defs4398">
    <clipPath
       clipPathUnits="userSpaceOnUse"
       id="clipPath5470">
      <path
         style="fill:none;stroke:#0000ff;stroke-width:0.25;stroke-linecap:butt;stroke-linejoin:miter;stroke-miterlimit:4;stroke-dasharray:none;stroke-opacity:1"
         d="m 204.76134,602.37138 2.34725,3.44746 -3.05722,2.11328 2.77503,0.93875 -1.17707,2.12713 2.29756,2.29609 -4.25596,2.95211 3.95906,4.63319 -22.62431,-4.03303 0.44844,-15.40172 z"
         id="path5472"
         inkscape:connector-curvature="0" />
    </clipPath>
    <clipPath
       clipPathUnits="userSpaceOnUse"
       id="clipPath5466">
      <path
         inkscape:connector-curvature="0"
         id="path5468"
         d="m 204.76134,602.37138 2.34725,3.44746 -3.05722,2.11328 2.77503,0.93875 -1.17707,2.12713 2.29756,2.29609 -4.25596,2.95211 3.95906,4.63319 15.70004,-3.41275 0.44844,-15.40172 z"
         style="fill:none;stroke:#0000ff;stroke-width:0.25;stroke-linecap:butt;stroke-linejoin:miter;stroke-miterlimit:4;stroke-dasharray:none;stroke-opacity:1"
         sodipodi:nodetypes="ccccccccccc" />
    </clipPath>
    <clipPath
       clipPathUnits="userSpaceOnUse"
       id="clipPath3847">
      <path
         style="fill:none;stroke:#ff0000;stroke-width:1px;stroke-linecap:butt;stroke-linejoin:miter;stroke-opacity:1"
         d="m 201.98237,602.57205 2.47839,4.41987 -3.54505,2.98346 3.35775,3.90694 -3.49097,4.91012 21.70613,0.2846 0.75009,-17.2091 z"
         id="path3849"
         inkscape:connector-curvature="0" />
    </clipPath>
    <clipPath
       clipPathUnits="userSpaceOnUse"
       id="clipPath3847-7">
      <path
         style="fill:none;stroke:#ff0000;stroke-width:1px;stroke-linecap:butt;stroke-linejoin:miter;stroke-opacity:1"
         d="m 201.98237,602.57205 2.47839,4.41987 -3.54505,2.98346 3.35775,3.90694 -3.49097,4.91012 21.70613,0.2846 0.75009,-17.2091 z"
         id="path3849-0"
         inkscape:connector-curvature="0" />
    </clipPath>
    <clipPath
       clipPathUnits="userSpaceOnUse"
       id="clipPath5104">
      <rect
         y="945.70209"
         x="762.63232"
         height="768.22485"
         width="768.22485"
         id="rect5106"
         style="opacity:0.5;fill:#ffc441;fill-opacity:1;stroke:none" />
    </clipPath>
  </defs>
  <sodipodi:namedview
     id="base"
     pagecolor="#ffffff"
     bordercolor="#666666"
     borderopacity="1.0"
     inkscape:pageopacity="0.0"
     inkscape:pageshadow="2"
     inkscape:zoom="0.64"
     inkscape:cx="91.348435"
     inkscape:cy="308.77601"
     inkscape:document-units="px"
     inkscape:current-layer="layer1"
     showgrid="false"
     fit-margin-top="0"
     fit-margin-left="0"
     fit-margin-right="0"
     fit-margin-bottom="0"
     inkscape:snap-bbox="true"
     inkscape:object-paths="true"
     inkscape:snap-smooth-nodes="true"
     inkscape:snap-intersection-paths="true"
     inkscape:object-nodes="true"
     inkscape:window-width="1280"
     inkscape:window-height="751"
     inkscape:window-x="0"
     inkscape:window-y="0"
     inkscape:window-maximized="1"
     inkscape:snap-bbox-edge-midpoints="true" />
  <metadata
     id="metadata4401">
    <rdf:RDF>
      <cc:Work
         rdf:about="">
        <dc:format>image/svg+xml</dc:format>
        <dc:type
           rdf:resource="http://purl.org/dc/dcmitype/StillImage" />
        <dc:title></dc:title>
      </cc:Work>
    </rdf:RDF>
  </metadata>
  <g
     inkscape:label="Layer 1"
     inkscape:groupmode="layer"
     id="layer1"
     transform="translate(-656.87793,-1719.9709)">
    <g
       id="g2997"
       clip-path="url(#clipPath5104)"
       transform="matrix(0.13017022,0,0,0.13017022,557.60591,1596.8687)">
      <g
         transform="translate(-7.934903e-6,-1.4696948e-6)"
         inkscape:tile-y0="107.47762"
         inkscape:tile-x0="-75.592303"
         inkscape:tile-h="908.22457"
         inkscape:tile-w="908.22462"
         inkscape:tile-cy="561.5899"
         inkscape:tile-cx="378.52"
         id="g4444"
         style="opacity:1">
        <g
           id="g4435"
           inkscape:transform-center-x="80"
           inkscape:transform-center-y="-131.42857">
          <path
             inkscape:transform-center-y="2187.7884"
             inkscape:transform-center-x="-2203.6278"
             inkscape:connector-curvature="0"
             id="path4419"
             d="m 144.56229,130.8673 c -18.2023,-0.14432 -35.06007,12.0076 -39.97346,30.34455 L 76.984293,264.23488 c -5.823337,21.73245 7.34195,43.8981 29.074497,49.72137 l 166.81665,44.6983 -0.10292,0.50396 93.69623,118.26783 c 13.97145,17.63543 39.26275,20.56717 56.89837,6.59577 l 83.6011,-66.23105 c 17.63553,-13.97139 20.92012,-39.54272 6.94868,-57.17814 l -80.34848,-101.41934 -9.78131,31.28245 -34.57072,-10.5416 -10.71563,11.4324 8.31198,23.21784 -34.5372,5.73478 -4.68453,40.52202 82.0322,-64.98865 22.05947,27.84485 -107.08074,84.83323 -22.05945,-27.8446 19.43033,-15.39385 -25.51166,-7.73455 -6.63391,7.0782 -9.47704,-11.96335 -24.82892,-7.52656 -2.32208,11.83558 -5.18826,-10.87072 24.41961,-8.76637 -20.38789,-5.46315 4.64368,-24.17538 -12.3074,-3.298 -8.39291,23.1717 -35.53642,-9.52138 52.80029,-127.28404 49.63677,13.29944 -2.50625,21.88482 34.03646,-12.15665 -10.80605,-30.9441 -188.86862,-50.60698 c -3.3957,-0.91542 -6.81259,-1.36 -10.1834,-1.38674 z m 38.6545,35.78406 58.11372,15.57178 -7.07603,26.40771 -23.79965,-6.37668 -6.7049,25.02122 21.1917,5.67917 -6.72682,25.10333 -21.19116,-5.67823 -14.85086,55.42421 -34.31397,-9.19533 35.35797,-131.95718 z m -54.91657,43.24579 c 1.0479,0 2.11741,0.16561 3.18997,0.45262 6.86435,1.83911 11.18399,8.68497 9.34466,15.54906 -1.83926,6.86432 -9.11968,11.06851 -15.98402,9.22822 -6.86434,-1.83934 -10.63304,-9.00274 -8.79379,-15.86706 1.55194,-5.79132 6.58507,-9.46269 12.24318,-9.36379 z m 163.29197,17.41728 c -10.23319,24.28041 -17.34976,42.14511 -21.34938,53.59503 l 11.73668,3.1447 c 2.2651,-15.40924 5.46947,-34.32232 9.6127,-56.73973 z m 27.00895,14.21391 -10.32238,90.1322 25.09072,-9.00701 1.85539,-6.92393 -20.40723,-35.32008 24.30183,-25.20199 -20.51833,-13.67919 z m 150.77835,104.50559 22.05957,27.8446 -85.65112,67.8565 13.41369,16.93178 -21.42922,16.97696 -35.47366,-44.77756 107.08074,-84.83228 z"
             style="fill:#4f4f4f;fill-opacity:1" />
        </g>
        <use
           x="0"
           y="0"
           xlink:href="#g4435"
           inkscape:transform-center-x="-131.42857"
           inkscape:transform-center-y="-79.999999"
           id="use4438"
           transform="matrix(0,1,-1,0,940.10993,183.06992)"
           width="744.09448"
           height="1052.3622" />
        <use
           x="0"
           y="0"
           xlink:href="#g4435"
           inkscape:transform-center-x="-80"
           inkscape:transform-center-y="131.42852"
           id="use4440"
           transform="matrix(-1,0,0,-1,757.04001,1123.1798)"
           width="744.09448"
           height="1052.3622" />
        <use
           x="0"
           y="0"
           xlink:href="#g4435"
           inkscape:transform-center-x="131.42857"
           inkscape:transform-center-y="80.000001"
           id="use4442"
           transform="matrix(0,-1,1,0,-183.06992,940.10993)"
           width="744.09448"
           height="1052.3622" />
      </g>
      <use
         height="1052.3622"
         width="744.09448"
         id="use4453"
         transform="translate(0,768.22457)"
         xlink:href="#g4444"
         inkscape:tiled-clone-of="#g4444"
         y="0"
         x="0" />
      <use
         height="1052.3622"
         width="744.09448"
         id="use4455"
         transform="translate(0,1536.4491)"
         xlink:href="#g4444"
         inkscape:tiled-clone-of="#g4444"
         y="0"
         x="0" />
      <use
         height="1052.3622"
         width="744.09448"
         id="use4457"
         transform="translate(768.22462,0)"
         xlink:href="#g4444"
         inkscape:tiled-clone-of="#g4444"
         y="0"
         x="0" />
      <use
         height="1052.3622"
         width="744.09448"
         id="use4459"
         transform="translate(768.22462,768.22457)"
         xlink:href="#g4444"
         inkscape:tiled-clone-of="#g4444"
         y="0"
         x="0" />
      <use
         height="1052.3622"
         width="744.09448"
         id="use4461"
         transform="translate(768.22462,1536.4491)"
         xlink:href="#g4444"
         inkscape:tiled-clone-of="#g4444"
         y="0"
         x="0" />
      <use
         height="1052.3622"
         width="744.09448"
         id="use4463"
         transform="translate(1536.4492,0)"
         xlink:href="#g4444"
         inkscape:tiled-clone-of="#g4444"
         y="0"
         x="0" />
      <use
         height="1052.3622"
         width="744.09448"
         id="use4465"
         transform="translate(1536.4492,768.22457)"
         xlink:href="#g4444"
         inkscape:tiled-clone-of="#g4444"
         y="0"
         x="0" />
      <use
         height="1052.3622"
         width="744.09448"
         id="use4467"
         transform="translate(1536.4492,1536.4491)"
         xlink:href="#g4444"
         inkscape:tiled-clone-of="#g4444"
         y="0"
         x="0" />
    </g>
  </g>
</svg>
