<?xml version="1.0" encoding="UTF-8" standalone="no"?>
<!-- Created with Inkscape (http://www.inkscape.org/) -->

<svg
   xmlns:dc="http://purl.org/dc/elements/1.1/"
   xmlns:cc="http://creativecommons.org/ns#"
   xmlns:rdf="http://www.w3.org/1999/02/22-rdf-syntax-ns#"
   xmlns:svg="http://www.w3.org/2000/svg"
   xmlns="http://www.w3.org/2000/svg"
   xmlns:sodipodi="http://sodipodi.sourceforge.net/DTD/sodipodi-0.dtd"
   xmlns:inkscape="http://www.inkscape.org/namespaces/inkscape"
   width="1024"
   height="500"
   viewBox="0 0 1024 499.99998"
   id="svg4230"
   version="1.1"
   inkscape:version="0.91 r13725"
   sodipodi:docname="feature-graphic.svg">
  <defs
     id="defs4232">
    <clipPath
       clipPathUnits="userSpaceOnUse"
       id="clipPath4860">
      <path
         style="opacity:1;fill:#ff0000;fill-opacity:1;stroke:#14214d;stroke-width:3;stroke-linecap:square;stroke-linejoin:miter;stroke-miterlimit:4;stroke-dasharray:none;stroke-dashoffset:0;stroke-opacity:1"
         d="m 234.26562,-461.66054 0,1282.50004 1325.49998,0 0,-1282.50004 -1325.49998,0 z m 133.42969,83.64648 585.88867,0 0,339.41211 -585.88867,0 0,-339.41211 z"
         id="path4862"
         inkscape:connector-curvature="0" />
    </clipPath>
    <clipPath
       clipPathUnits="userSpaceOnUse"
       id="clipPath4868">
      <path
         style="opacity:1;fill:#4f4f4f;fill-opacity:1;stroke:#14214d;stroke-width:3;stroke-linecap:square;stroke-linejoin:miter;stroke-miterlimit:4;stroke-dasharray:none;stroke-dashoffset:0;stroke-opacity:1"
         d="m 1608.1635,-30.521791 0,307.085941 565.6856,0 0,-307.085941 -565.6856,0 z m 150.5332,149.109371 a 20,20.357143 0 0 1 20,20.35742 20,20.357143 0 0 1 -20,20.35743 20,20.357143 0 0 1 -20,-20.35743 20,20.357143 0 0 1 20,-20.35742 z"
         id="path4870"
         inkscape:connector-curvature="0" />
    </clipPath>
    <clipPath
       clipPathUnits="userSpaceOnUse"
       id="clipPath5470">
      <path
         style="fill:none;stroke:#0000ff;stroke-width:0.25;stroke-linecap:butt;stroke-linejoin:miter;stroke-miterlimit:4;stroke-dasharray:none;stroke-opacity:1"
         d="m 204.76134,602.37138 2.34725,3.44746 -3.05722,2.11328 2.77503,0.93875 -1.17707,2.12713 2.29756,2.29609 -4.25596,2.95211 3.95906,4.63319 -22.62431,-4.03303 0.44844,-15.40172 z"
         id="path5472"
         inkscape:connector-curvature="0" />
    </clipPath>
    <clipPath
       clipPathUnits="userSpaceOnUse"
       id="clipPath5466">
      <path
         inkscape:connector-curvature="0"
         id="path5468"
         d="m 204.76134,602.37138 2.34725,3.44746 -3.05722,2.11328 2.77503,0.93875 -1.17707,2.12713 2.29756,2.29609 -4.25596,2.95211 3.95906,4.63319 15.70004,-3.41275 0.44844,-15.40172 z"
         style="fill:none;stroke:#0000ff;stroke-width:0.25;stroke-linecap:butt;stroke-linejoin:miter;stroke-miterlimit:4;stroke-dasharray:none;stroke-opacity:1"
         sodipodi:nodetypes="ccccccccccc" />
    </clipPath>
    <clipPath
       clipPathUnits="userSpaceOnUse"
       id="clipPath3847">
      <path
         style="fill:none;stroke:#ff0000;stroke-width:1px;stroke-linecap:butt;stroke-linejoin:miter;stroke-opacity:1"
         d="m 201.98237,602.57205 2.47839,4.41987 -3.54505,2.98346 3.35775,3.90694 -3.49097,4.91012 21.70613,0.2846 0.75009,-17.2091 z"
         id="path3849"
         inkscape:connector-curvature="0" />
    </clipPath>
    <clipPath
       id="clipPath4082"
       clipPathUnits="userSpaceOnUse">
      <path
         sodipodi:nodetypes="ccccccc"
         inkscape:connector-curvature="0"
         id="path4084"
         d="m -685.8344,1901.0016 -650.2253,53.3272 72.9823,-1035.16923 -2161.6075,312.94083 -317.0486,1510.3359 3077.52741,-137.6835 z"
         style="fill:none;stroke:#000000;stroke-width:1px;stroke-linecap:butt;stroke-linejoin:miter;stroke-opacity:1" />
    </clipPath>
  </defs>
  <sodipodi:namedview
     id="base"
     pagecolor="#545454"
     bordercolor="#666666"
     borderopacity="1.0"
     inkscape:pageopacity="1"
     inkscape:pageshadow="2"
     inkscape:zoom="0.49497475"
     inkscape:cx="634.73619"
     inkscape:cy="131.36081"
     inkscape:document-units="px"
     inkscape:current-layer="layer1"
     showgrid="false"
     inkscape:window-width="1280"
     inkscape:window-height="751"
     inkscape:window-x="0"
     inkscape:window-y="0"
     inkscape:window-maximized="1"
     units="px" />
  <metadata
     id="metadata4235">
    <rdf:RDF>
      <cc:Work
         rdf:about="">
        <dc:format>image/svg+xml</dc:format>
        <dc:type
           rdf:resource="http://purl.org/dc/dcmitype/StillImage" />
        <dc:title></dc:title>
      </cc:Work>
    </rdf:RDF>
  </metadata>
  <g
     inkscape:label="Layer 1"
     inkscape:groupmode="layer"
     id="layer1"
     transform="translate(0,-552.36224)">
    <g
       id="g5225"
       transform="matrix(0.28837223,0,0,0.28837223,-88.35443,744.00096)">
      <ellipse
         style="fill:none;stroke:#ffffff;stroke-width:25;stroke-miterlimit:4;stroke-dasharray:none"
         id="path4078"
         transform="matrix(0.53487335,-0.84493224,0.84493222,0.53487339,0,0)"
         inkscape:transform-center-x="142.26255"
         inkscape:transform-center-y="208.62974"
         cx="-68.829185"
         cy="473.2402"
         rx="250.10674"
         ry="143.25224" />
      <g
         transform="translate(-238.44358,254.03533)"
         id="g3947" />
      <g
         inkscape:label="Layer 1"
         id="layer1-1"
         transform="matrix(31.032822,0,0,31.032822,-5452.9202,-18751.834)">
        <g
           id="g3807"
           transform="matrix(0.96592583,-0.25881905,0.25881905,0.96592583,-144.95382,92.658184)">
          <path
             inkscape:connector-curvature="0"
             id="path3019"
             transform="matrix(0.03112594,0.00834017,-0.00834017,0.03112594,270.55679,554.70045)"
             d="m -1462.8125,1142.5625 c -7.2252,0.048 -14.5575,1.008 -21.875,2.9687 L -2161,1326.75 c -46.8318,12.5485 -74.9548,61.2307 -62.4062,108.0625 l 59.4687,222 c 12.5485,46.8318 61.012,74.0173 107.8437,61.4687 l 676.3126,-181.2187 c 46.8317,-12.5485 74.2672,-60.0432 61.7187,-106.875 l -59.4687,-222 c -10.5879,-39.5143 -46.2653,-65.8864 -85.2813,-65.625 z m -252.625,120 39,145.5937 39.0313,145.5626 -15.0626,4.0312 -15.0624,4.0312 -39.0313,-145.5624 -39,-145.5938 15.0625,-4.0312 15.0625,-4.0313 z m -45.1875,12.125 39,145.5625 39.0312,145.5625 -3.5937,0.9687 -3.5937,0.9688 -39,-145.5625 -39,-145.5937 3.5624,-0.9688 3.5938,-0.9375 z m -22.2188,5.9375 39,145.5938 39,145.5624 -5.0312,1.3438 -5,1.3438 -39,-145.5626 -39.0312,-145.5937 5.0312,-1.3437 5.0312,-1.3438 z m -16.9687,4.5938 c 1.3341,0.2637 3.7284,9.1516 40.1875,145.2187 38.8893,145.1367 38.9893,145.5864 37.5625,145.9687 -1.4298,0.3832 -1.5478,-0.049 -40.4375,-145.1874 -38.8893,-145.1368 -38.9893,-145.5865 -37.5625,-145.9688 0.089,-0.024 0.1611,-0.049 0.25,-0.031 z m -24.6563,6.5624 39.0313,145.5626 39,145.5937 -7.5313,2 -7.5312,2.0313 -39,-145.5626 -39.0312,-145.5937 7.5312,-2 7.5312,-2.0313 z m -25.8124,6.9063 39,145.5937 39.0312,145.5626 -15.0625,4.0312 -15.0625,4.0625 -39.0312,-145.5937 -39,-145.5626 15.0624,-4.0312 15.0626,-4.0625 z m -39.4376,10.5937 39,145.5626 39,145.5624 -3.5937,0.9688 -3.5625,0.9688 -39,-145.5626 -39.0312,-145.5937 3.5937,-0.9687 3.5937,-0.9376 z m -23.6874,6.3438 39.0312,145.5625 39,145.5625 -2.875,0.7812 -2.875,0.7813 -39,-145.5937 -39,-145.5626 2.875,-0.7812 2.8438,-0.75 z m -11.4688,3.0625 39,145.5625 39.0312,145.5938 -7.5312,2 -7.5312,2.0312 -39.0313,-145.5625 -39,-145.5937 7.5313,-2 7.5312,-2.0313 z m -43.0312,11.5313 39,145.5624 39,145.5938 -5,1.3438 -5.0313,1.3437 -39,-145.5625 -39,-145.5938 5,-1.3437 5.0313,-1.3437 z m -20.8126,5.5624 39.0313,145.5938 39,145.5625 -11.4687,3.0937 -11.5,3.0626 -39,-145.5626 -39,-145.5937 11.4687,-3.0625 11.4687,-3.0938 z m -41.5937,11.1563 39,145.5625 39.0313,145.5938 -3.5938,0.9687 -3.5938,0.9375 -39,-145.5625 -39,-145.5625 3.5626,-0.9688 3.5937,-0.9687 z m -21.5,5.7813 39,145.5624 39,145.5626 -15.4063,4.1562 -15.4374,4.125 -39,-145.5938 -39,-145.5624 15.4062,-4.125 15.4375,-4.125 z m -61.5,143.8437 c 12.4013,-0.2693 23.9058,7.4568 27.25,19.9375 3.9635,14.792 -5.1143,30.474 -19.9063,34.4375 -14.7919,3.9635 -29.5365,-5.333 -33.5,-20.125 -3.9634,-14.792 4.4268,-29.3178 19.2188,-33.2813 2.3112,-0.6192 4.641,-0.9188 6.9375,-0.9687 z"
             style="fill:#ffffff;fill-opacity:1;stroke:none" />
          <text
             xml:space="preserve"
             style="font-style:normal;font-variant:normal;font-weight:bold;font-stretch:normal;font-size:5.30829525px;line-height:100%;font-family:Impact;-inkscape-font-specification:'Impact Bold';text-align:end;letter-spacing:0px;word-spacing:0px;writing-mode:lr-tb;text-anchor:end;fill:#ff9601;fill-opacity:1;stroke:none"
             x="215.46002"
             y="583.88843"
             id="text3021"
             sodipodi:linespacing="100%"><tspan
               sodipodi:role="line"
               id="tspan3025"
               x="215.46002"
               y="583.88843">KEY</tspan><tspan
               sodipodi:role="line"
               id="tspan3027-5"
               x="215.46002"
               y="589.19672">TAG</tspan></text>
          <path
             id="path3305"
             d="m 192.22812,577.97329 c -1.56234,0 -2.84375,1.28141 -2.84375,2.84375 l 0,7.40625 c 0,1.56234 1.28141,2.8125 2.84375,2.8125 l 22.5625,0 c 1.56234,0 2.8125,-1.25016 2.8125,-2.8125 l 0,-7.40625 c 0,-1.56234 -1.25016,-2.84375 -2.8125,-2.84375 l -22.5625,0 z m -0.15625,5.65625 c 0.49347,0 0.90625,0.38153 0.90625,0.875 0,0.49347 -0.41278,0.90625 -0.90625,0.90625 -0.49347,0 -0.875,-0.41278 -0.875,-0.90625 0,-0.49347 0.38153,-0.875 0.875,-0.875 z"
             style="fill:none;stroke:#ff9601;stroke-width:0.25;stroke-miterlimit:4;stroke-dasharray:none;stroke-opacity:1"
             inkscape:connector-curvature="0" />
        </g>
        <g
           clip-path="url(#clipPath5466)"
           transform="matrix(0.62097604,0.78382957,-0.78382957,0.62097604,558.63874,73.721169)"
           id="g5456"
           inkscape:transform-center-x="-8.2141417"
           inkscape:transform-center-y="0.48049691">
          <path
             inkscape:connector-curvature="0"
             style="fill:#ff9601;fill-opacity:1;stroke:#ffffff;stroke-width:0.25;stroke-miterlimit:4;stroke-dasharray:none;stroke-opacity:1"
             d="m 192.25,603.9375 c -1.56234,0 -2.84375,1.28141 -2.84375,2.84375 l 0,7.40625 c 0,1.56234 1.28141,2.8125 2.84375,2.8125 l 22.5625,0 c 1.56234,0 2.8125,-1.25016 2.8125,-2.8125 l 0,-7.40625 c 0,-1.56234 -1.25016,-2.84375 -2.8125,-2.84375 l -22.5625,0 z m -0.15625,5.65625 c 0.49347,0 0.90625,0.38153 0.90625,0.875 0,0.49347 -0.41278,0.90625 -0.90625,0.90625 -0.49347,0 -0.875,-0.41278 -0.875,-0.90625 0,-0.49347 0.38153,-0.875 0.875,-0.875 z"
             id="path5458" />
          <text
             xml:space="preserve"
             style="font-style:normal;font-variant:normal;font-weight:bold;font-stretch:normal;font-size:12px;line-height:125%;font-family:Impact;-inkscape-font-specification:'Impact Bold';letter-spacing:0px;word-spacing:0px;fill:#ffffff;fill-opacity:1;stroke:none"
             x="194.28571"
             y="615.21936"
             id="text5460"
             sodipodi:linespacing="125%"><tspan
               sodipodi:role="line"
               id="tspan5462"
               x="194.28571"
               y="615.21936"
               style="letter-spacing:1px;fill:#ffffff;fill-opacity:1">FAIL</tspan></text>
        </g>
        <g
           id="g3012"
           transform="matrix(0.96592584,0.25881905,-0.25881905,0.96592584,164.31836,-31.845971)"
           clip-path="url(#clipPath5470)">
          <path
             id="rect2989"
             d="m 192.25,603.9375 c -1.56234,0 -2.84375,1.28141 -2.84375,2.84375 l 0,7.40625 c 0,1.56234 1.28141,2.8125 2.84375,2.8125 l 22.5625,0 c 1.56234,0 2.8125,-1.25016 2.8125,-2.8125 l 0,-7.40625 c 0,-1.56234 -1.25016,-2.84375 -2.8125,-2.84375 l -22.5625,0 z m -0.15625,5.65625 c 0.49347,0 0.90625,0.38153 0.90625,0.875 0,0.49347 -0.41278,0.90625 -0.90625,0.90625 -0.49347,0 -0.875,-0.41278 -0.875,-0.90625 0,-0.49347 0.38153,-0.875 0.875,-0.875 z"
             style="fill:#ff9601;fill-opacity:1;stroke:#ffffff;stroke-width:0.25;stroke-miterlimit:4;stroke-dasharray:none;stroke-opacity:1"
             inkscape:connector-curvature="0" />
          <text
             sodipodi:linespacing="125%"
             id="text2985"
             y="615.21936"
             x="194.28571"
             style="font-style:normal;font-variant:normal;font-weight:bold;font-stretch:normal;font-size:12px;line-height:125%;font-family:Impact;-inkscape-font-specification:'Impact Bold';letter-spacing:0px;word-spacing:0px;fill:#ffffff;fill-opacity:1;stroke:none"
             xml:space="preserve"><tspan
               style="letter-spacing:1px;fill:#ffffff;fill-opacity:1"
               y="615.21936"
               x="194.28571"
               id="tspan2987"
               sodipodi:role="line">FAIL</tspan></text>
        </g>
      </g>
      <ellipse
         clip-path="url(#clipPath4082)"
         inkscape:transform-center-y="208.62974"
         inkscape:transform-center-x="142.26255"
         transform="matrix(0.10929365,-0.17264971,0.16999781,0.10761491,281.17119,-272.58764)"
         id="path3308"
         style="fill:none;stroke:#ffffff;stroke-width:123.29836273;stroke-miterlimit:4;stroke-dasharray:none"
         cx="-2200"
         cy="1896"
         rx="1224"
         ry="712" />
    </g>
    <text
       xml:space="preserve"
       style="font-style:normal;font-variant:normal;font-weight:normal;font-stretch:normal;font-size:44.45101929px;line-height:125%;font-family:Georgia;-inkscape-font-specification:Georgia;letter-spacing:0px;word-spacing:0px;fill:#000000;fill-opacity:1;stroke:none;stroke-width:1px;stroke-linecap:butt;stroke-linejoin:miter;stroke-opacity:1"
       x="382.85126"
       y="768.37152"
       id="text5199"
       sodipodi:linespacing="125%"><tspan
         sodipodi:role="line"
         id="tspan5201"
         x="382.85126"
         y="768.37152"
         style="font-style:normal;font-variant:normal;font-weight:normal;font-stretch:normal;font-family:'Helvetica Neue';-inkscape-font-specification:'Helvetica Neue';fill:#ffffff">you usually have your keys,</tspan><tspan
         sodipodi:role="line"
         x="382.85126"
         y="823.98212"
         id="tspan5203"
         style="font-style:normal;font-variant:normal;font-weight:normal;font-stretch:normal;font-family:'Helvetica Neue';-inkscape-font-specification:'Helvetica Neue';fill:#ffffff">you <tspan
   style="font-style:italic;font-variant:normal;font-weight:normal;font-stretch:normal;font-family:'Helvetica Neue';-inkscape-font-specification:'Helvetica Neue Italic'"
   id="tspan5205">always</tspan> have your phone</tspan><tspan
         sodipodi:role="line"
         x="382.85126"
         y="862.70099"
         style="font-style:italic;font-variant:normal;font-weight:300;font-stretch:normal;font-size:27.5px;font-family:'Helvetica Neue';-inkscape-font-specification:'Helvetica Neue Light Italic';fill:#ffffff"
         id="tspan5816">(more for loyalty cards, less for starting your car)</tspan></text>
  </g>
</svg>
